                                                                        S      1
,,39HAmphenol DLHR-L01D-E1BD Pitot Tube A v1,39HAmphenol DLHR-L01D-E1BD G      1
Pitot Tube A v1,7Hunknown,7Hunknown,32,38,7,99,15,,1.,2,2HMM,1,0.08,15H2G      2
0200925.111230,0.01,10000.,7Hunknown,7Hunknown,11,0,15H20190206.201133; G      3
     186       1                                                00000000D      1
     186            -139       1       0                               0D      2
     514       2                                                00010000D      3
     514                       1       1                               0D      4
     510       3                                                00010000D      5
     510            -139       1       1                               0D      6
     510       4                                                00010000D      7
     510            -139       1       1                               0D      8
     510       5                                                00010000D      9
     510            -139       1       1                               0D     10
     510       6                                                00010000D     11
     510            -139       1       1                               0D     12
     510       7                                                00010000D     13
     510            -139       1       1                               0D     14
     510       8                                                00010000D     15
     510            -139       1       1                               0D     16
     510       9                                                00010000D     17
     510            -139       1       1                               0D     18
     510      10                                                00010000D     19
     510            -139       1       1                               0D     20
     510      11                                                00010000D     21
     510            -139       1       1                               0D     22
     510      12                                                00010000D     23
     510            -139       1       1                               0D     24
     510      13                                                00010000D     25
     510            -139       1       1                               0D     26
     508      14                                                00010000D     27
     508                       2       1                               0D     28
     508      16                                                00010000D     29
     508                       2       1                               0D     30
     508      18                                                00010000D     31
     508                       1       1                               0D     32
     508      19                                                00010000D     33
     508                       1       1                               0D     34
     508      20                                                00010000D     35
     508                       1       1                               0D     36
     508      21                                                00010000D     37
     508                       2       1                               0D     38
     508      23                                                00010000D     39
     508                       2       1                               0D     40
     508      25                                                00010000D     41
     508                       1       1                               0D     42
     508      26                                                00010000D     43
     508                       1       1                               0D     44
     508      27                                                00010000D     45
     508                       1       1                               0D     46
     508      28                                                00010000D     47
     508                       1       1                               0D     48
     508      29                                                00010000D     49
     508                       1       1                               0D     50
     508      30                                                00010000D     51
     508                       2       1                               0D     52
     126      32                                                00010000D     53
     126       0               2       0                               0D     54
     126      34                                                00010000D     55
     126       0               5       0                               0D     56
     126      39                                                00010000D     57
     126       0               2       0                               0D     58
     126      41                                                00010000D     59
     126       0               2       0                               0D     60
     126      43                                                00010000D     61
     126       0               2       0                               0D     62
     126      45                                                00010000D     63
     126       0               2       0                               0D     64
     126      47                                                00010000D     65
     126       0               2       0                               0D     66
     126      49                                                00010000D     67
     126       0               2       0                               0D     68
     126      51                                                00010000D     69
     126       0               3       0                               0D     70
     126      54                                                00010000D     71
     126       0               2       0                               0D     72
     126      56                                                00010000D     73
     126       0               2       0                               0D     74
     126      58                                                00010000D     75
     126       0               4       0                               0D     76
     126      62                                                00010000D     77
     126       0               6       0                               0D     78
     126      68                                                00010000D     79
     126       0               8       0                               0D     80
     126      76                                                00010000D     81
     126       0               2       0                               0D     82
     126      78                                                00010000D     83
     126       0               2       0                               0D     84
     126      80                                                00010000D     85
     126       0               2       0                               0D     86
     126      82                                                00010000D     87
     126       0               2       0                               0D     88
     126      84                                                00010000D     89
     126       0               2       0                               0D     90
     126      86                                                00010000D     91
     126       0               6       0                               0D     92
     126      92                                                00010000D     93
     126       0               2       0                               0D     94
     126      94                                                00010000D     95
     126       0               2       0                               0D     96
     126      96                                                00010000D     97
     126       0               6       0                               0D     98
     126     102                                                00010000D     99
     126       0               2       0                               0D    100
     126     104                                                00010000D    101
     126       0               5       0                               0D    102
     126     109                                                00010000D    103
     126       0               7       0                               0D    104
     126     116                                                00010000D    105
     126       0               6       0                               0D    106
     126     122                                                00010000D    107
     126       0               7       0                               0D    108
     126     129                                                00010000D    109
     126       0               4       0                               0D    110
     128     133                                                00010000D    111
     128       0    -139       3       0                               0D    112
     128     136                                                00010000D    113
     128       0    -139       3       0                               0D    114
     128     139                                                00010000D    115
     128       0    -139       3       0                               0D    116
     128     142                                                00010000D    117
     128       0    -139       3       0                               0D    118
     128     145                                                00010000D    119
     128       0    -139       4       0                               0D    120
     128     149                                                00010000D    121
     128       0    -139       3       0                               0D    122
     128     152                                                00010000D    123
     128       0    -139       3       0                               0D    124
     128     155                                                00010000D    125
     128       0    -139       8       0                               0D    126
     128     163                                                00010000D    127
     128       0    -139      13       0                               0D    128
     128     176                                                00010000D    129
     128       0    -139       9       0                               0D    130
     128     185                                                00010000D    131
     128       0    -139      20       0                               0D    132
     502     205                                                00010000D    133
     502                       7       1                               0D    134
     504     212                                                00010001D    135
     504                       8       1                               0D    136
     406     220                                                00000000D    137
     406                       1      15                               0D    138
     314     221                                                00000200D    139
     314                       2       0                               0D    140
186,3,1,0,0,1,137;                                                     1P      1
514,11,5,1,7,1,9,1,11,1,13,1,15,1,17,1,19,1,21,1,23,1,25,1;            3P      2
510,111,1,1,27;                                                        5P      3
510,113,2,1,29,31;                                                     7P      4
510,115,1,1,33;                                                        9P      5
510,117,1,1,35;                                                       11P      6
510,119,1,1,37;                                                       13P      7
510,121,1,1,39;                                                       15P      8
510,123,2,1,41,43;                                                    17P      9
510,125,1,1,45;                                                       19P     10
510,127,1,1,47;                                                       21P     11
510,129,1,1,49;                                                       23P     12
510,131,1,1,51;                                                       25P     13
508,7,0,135,1,0,0,0,135,2,0,0,0,135,3,0,0,0,135,4,1,0,0,135,5,1,      27P     14
0,0,135,6,1,0,0,135,7,1,0;                                            27P     15
508,5,0,135,8,0,0,0,135,9,1,0,0,135,10,1,0,0,135,11,0,0,0,135,        29P     16
12,0,0;                                                               29P     17
508,2,0,135,13,0,0,0,135,14,0,0;                                      31P     18
508,4,0,135,15,1,0,0,135,16,0,0,0,135,5,0,0,0,135,17,1,0;             33P     19
508,4,0,135,18,1,0,0,135,19,0,0,0,135,6,0,0,0,135,16,1,0;             35P     20
508,6,0,135,20,1,0,0,135,7,0,0,0,135,19,1,0,0,135,21,1,0,0,135,       37P     21
22,0,0,0,135,9,0,0;                                                   37P     22
508,6,0,135,23,1,0,0,135,10,0,0,0,135,22,1,0,0,135,24,1,0,0,135,      39P     23
17,0,0,0,135,4,0,0;                                                   39P     24
508,4,0,135,15,0,0,0,135,24,0,0,0,135,21,0,0,0,135,18,0,0;            41P     25
508,2,0,135,25,1,0,0,135,26,1,0;                                      43P     26
508,4,0,135,1,1,0,0,135,20,0,0,0,135,8,1,0,0,135,27,0,0;              45P     27
508,4,0,135,2,1,0,0,135,27,1,0,0,135,12,1,0,0,135,28,0,0;             47P     28
508,4,0,135,3,1,0,0,135,28,1,0,0,135,11,1,0,0,135,23,0,0;             49P     29
508,6,0,135,25,0,0,0,135,26,0,0,0,135,29,1,0,0,135,14,1,0,0,135,      51P     30
13,1,0,0,135,29,0,0;                                                  51P     31
126,1,1,0,0,1,0,-1.,-1.,0.,0.,1.,1.,-0.5,3.5,2.286,-4.5,3.5,          53P     32
2.286,-1.,0.,0.,0.,0.;                                                53P     33
126,2,2,0,0,0,0,-3.14159265358979,-3.14159265358979,                  55P     34
-3.14159265358979,-1.5707963267949,-1.5707963267949,                  55P     35
-1.5707963267949,1.,0.707106781186547,1.,3.5,-0.499999999999998,      55P     36
2.286,3.5,3.5,2.286,-0.500000000000001,3.5,2.286,                     55P     37
-3.14159265358979,-1.5707963267949,0.,0.,0.;                          55P     38
126,1,1,0,0,1,0,-1.,-1.,0.,0.,1.,1.,3.5,-4.5,2.286,3.5,               57P     39
-0.499999999999999,2.286,-1.,0.,0.,0.,0.;                             57P     40
126,1,1,0,0,1,0,0.,0.,1.,1.,1.,1.,3.5,-4.5,2.286,4.5,-4.5,2.286,      59P     41
0.,1.,0.,0.,0.;                                                       59P     42
126,1,1,0,0,1,0,0.,0.,1.,1.,1.,1.,4.5,-4.5,2.286,4.5,4.5,2.286,       61P     43
0.,1.,0.,0.,0.;                                                       61P     44
126,1,1,0,0,1,0,0.,0.,1.,1.,1.,1.,4.5,4.5,2.286,-4.5,4.5,2.286,       63P     45
0.,1.,0.,0.,0.;                                                       63P     46
126,1,1,0,0,1,0,0.,0.,1.,1.,1.,1.,-4.5,4.5,2.286,-4.5,3.5,2.286,      65P     47
0.,1.,0.,0.,0.;                                                       65P     48
126,1,1,0,0,1,0,0.,0.,1.,1.,1.,1.,-4.5,1.5,2.286,-0.5,1.5,2.286,      67P     49
0.,1.,0.,0.,0.;                                                       67P     50
126,1,1,0,0,1,0,4.62592926927149D-17,4.62592926927149D-17,1.,1.,      69P     51
1.,1.,-4.5,1.5,2.286,-4.5,-4.5,2.286,4.62592926927149D-17,1.,0.,      69P     52
0.,0.;                                                                69P     53
126,1,1,0,0,1,0,0.,0.,1.,1.,1.,1.,-4.5,-4.5,2.286,1.5,-4.5,           71P     54
2.286,0.,1.,0.,0.,0.;                                                 71P     55
126,1,1,0,0,1,0,0.,0.,1.,1.,1.,1.,1.5,-0.499999999999999,2.286,       73P     56
1.5,-4.5,2.286,0.,1.,0.,0.,0.;                                        73P     57
126,2,2,0,0,0,0,-1.5707963267949,-1.5707963267949,                    75P     58
-1.5707963267949,0.,0.,0.,1.,0.707106781186548,1.,-0.5,1.5,           75P     59
2.286,1.5,1.5,2.286,1.5,-0.499999999999999,2.286,                     75P     60
-1.5707963267949,0.,0.,0.,0.;                                         75P     61
126,4,2,0,0,0,0,0.,0.,0.,1.5707963267949,1.5707963267949,             77P     62
3.14159265358979,3.14159265358979,3.14159265358979,1.,                77P     63
0.707106781186548,1.,0.707106781186547,1.,-0.300000000000013,         77P     64
-1.5,2.286,-0.300000000000013,-0.300000000000012,2.286,-1.5,          77P     65
-0.300000000000012,2.286,-2.69999999999999,-0.300000000000012,        77P     66
2.286,-2.69999999999999,-1.5,2.286,0.,3.14159265358979,0.,0.,0.;      77P     67
126,4,2,0,0,0,0,3.14159265358979,3.14159265358979,                    79P     68
3.14159265358979,4.71238898038469,4.71238898038469,                   79P     69
6.28318530717959,6.28318530717959,6.28318530717959,1.,                79P     70
0.707106781186547,1.,0.707106781186548,1.,-2.69999999999999,          79P     71
-1.5,2.286,-2.69999999999999,-2.69999999999999,2.286,-1.5,            79P     72
-2.69999999999999,2.286,-0.300000000000013,-2.69999999999999,         79P     73
2.286,-0.300000000000013,-1.5,2.286,3.14159265358979,                 79P     74
6.28318530717959,0.,0.,0.;                                            79P     75
126,1,1,0,0,1,0,0.,0.,1.,1.,1.,1.,4.5,-4.5,0.,4.5,4.5,0.,0.,1.,       81P     76
0.,0.,0.;                                                             81P     77
126,1,1,0,0,1,0,0.,0.,1.,1.,1.,1.,4.5,4.5,2.286,4.5,4.5,0.,0.,        83P     78
1.,0.,0.,0.;                                                          83P     79
126,1,1,0,0,1,0,0.,0.,1.,1.,1.,1.,4.5,-4.5,2.286,4.5,-4.5,0.,0.,      85P     80
1.,0.,0.,0.;                                                          85P     81
126,1,1,0,0,1,0,0.,0.,1.,1.,1.,1.,4.5,4.5,0.,-4.5,4.5,0.,0.,1.,       87P     82
0.,0.,0.;                                                             87P     83
126,1,1,0,0,1,0,0.,0.,1.,1.,1.,1.,-4.5,4.5,2.286,-4.5,4.5,0.,0.,      89P     84
1.,0.,0.,0.;                                                          89P     85
126,4,2,0,0,0,0,4.71238898038469,4.71238898038469,                    91P     86
4.71238898038469,6.28318530717959,6.28318530717959,                   91P     87
7.85398163397448,7.85398163397448,7.85398163397448,1.,                91P     88
0.707106781186548,1.,0.707106781186547,1.,-4.5,1.5,2.286,-4.5,        91P     89
1.5,1.286,-4.5,2.5,1.286,-4.5,3.5,1.286,-4.5,3.5,2.286,               91P     90
4.71238898038469,7.85398163397448,0.,0.,0.;                           91P     91
126,1,1,0,0,1,0,0.,0.,1.,1.,1.,1.,-4.5,4.5,0.,-4.5,-4.5,0.,0.,        93P     92
1.,0.,0.,0.;                                                          93P     93
126,1,1,0,0,1,0,0.,0.,1.,1.,1.,1.,-4.5,-4.5,2.286,-4.5,-4.5,0.,       95P     94
0.,1.,0.,0.,0.;                                                       95P     95
126,4,2,0,0,0,0,1.5707963267949,1.5707963267949,1.5707963267949,      97P     96
3.14159265358979,3.14159265358979,4.71238898038469,                   97P     97
4.71238898038469,4.71238898038469,1.,0.707106781186548,1.,            97P     98
0.707106781186547,1.,3.5,-4.5,2.286,3.5,-4.5,1.286,2.5,-4.5,          97P     99
1.286,1.5,-4.5,1.286,1.5,-4.5,2.286,1.5707963267949,                  97P    100
4.71238898038469,0.,0.,0.;                                            97P    101
126,1,1,0,0,1,0,0.,0.,1.,1.,1.,1.,-4.5,-4.5,0.,4.5,-4.5,0.,0.,        99P    102
1.,0.,0.,0.;                                                          99P    103
126,4,2,0,0,0,0,0.,0.,0.,1.5707963267949,1.5707963267949,            101P    104
3.14159265358979,3.14159265358979,3.14159265358979,1.,               101P    105
0.707106781186548,1.,0.707106781186548,1.,-0.300000000000001,        101P    106
-1.5,0.,-0.300000000000001,-0.3,0.,-1.5,-0.3,0.,-2.7,-0.3,0.,        101P    107
-2.7,-1.5,0.,0.,3.14159265358979,0.,0.,0.;                           101P    108
126,4,2,0,0,0,0,3.14159265358979,3.14159265358979,                   103P    109
3.14159265358979,4.71238898038469,4.71238898038469,                  103P    110
6.28318530717959,6.28318530717959,6.28318530717959,1.,               103P    111
0.707106781186547,1.,0.707106781186547,1.,-2.7,-1.5,0.,-2.7,         103P    112
-2.7,0.,-1.5,-2.7,0.,-0.300000000000001,-2.7,0.,                     103P    113
-0.300000000000001,-1.5,0.,3.14159265358979,6.28318530717959,0.,     103P    114
0.,0.;                                                               103P    115
126,4,2,0,0,0,0,1.5707963267949,1.5707963267949,1.5707963267949,     105P    116
3.14159265358979,3.14159265358979,4.71238898038469,                  105P    117
4.71238898038469,4.71238898038469,1.,0.707106781186547,1.,           105P    118
0.707106781186547,1.,-0.5,3.5,2.286,-0.5,3.5,1.286,-0.5,2.5,         105P    119
1.286,-0.5,1.5,1.286,-0.5,1.5,2.286,1.5707963267949,                 105P    120
4.71238898038469,0.,0.,0.;                                           105P    121
126,4,2,0,0,0,0,1.5707963267949,1.5707963267949,1.5707963267949,     107P    122
3.14159265358979,3.14159265358979,4.71238898038469,                  107P    123
4.71238898038469,4.71238898038469,1.,0.707106781186548,1.,           107P    124
0.707106781186547,1.,3.5,-0.499999999999999,2.286,3.5,               107P    125
-0.499999999999999,1.286,2.5,-0.499999999999999,1.286,1.5,           107P    126
-0.499999999999999,1.286,1.5,-0.499999999999999,2.286,               107P    127
1.5707963267949,4.71238898038469,0.,0.,0.;                           107P    128
126,1,1,0,0,1,0,-1.90500000000001,-1.90500000000001,                 109P    129
8.88178419700125D-16,8.88178419700125D-16,1.,1.,                     109P    130
-2.69999999999999,-1.5,0.,-2.69999999999999,-1.5,2.286,              109P    131
-1.90500000000001,8.88178419700125D-16,0.,0.,0.;                     109P    132
128,1,1,1,1,0,0,1,0,0,-0.451,-0.451,0.451,0.451,-0.451,-0.451,       111P    133
0.451,0.451,1.,1.,1.,1.,-4.51,-4.51,2.286,4.51,-4.51,2.286,          111P    134
-4.51,4.51,2.286,4.51,4.51,2.286,-0.451,0.451,-0.451,0.451;          111P    135
128,1,1,1,1,0,0,1,0,0,-0.151,-0.151,0.451,0.451,-0.451,-0.451,       113P    136
0.151,0.151,1.,1.,1.,1.,-4.51,-4.51,2.286,1.51,-4.51,2.286,          113P    137
-4.51,1.51,2.286,1.51,1.51,2.286,-0.151,0.451,-0.451,0.151;          113P    138
128,1,1,1,1,0,0,1,0,0,-0.2296,-0.2296,0.001,0.001,-0.001,-0.001,     115P    139
0.901,0.901,1.,1.,1.,1.,4.5,-4.51,2.296,4.5,-4.51,-0.01,4.5,         115P    140
4.51,2.296,4.5,4.51,-0.01,-0.2296,0.001,-0.001,0.901;                115P    141
128,1,1,1,1,0,0,1,0,0,-0.001,-0.001,0.2296,0.2296,-0.001,-0.001,     117P    142
0.901,0.901,1.,1.,1.,1.,-4.51,4.5,-0.01,-4.51,4.5,2.296,4.51,        117P    143
4.5,-0.01,4.51,4.5,2.296,-0.001,0.2296,-0.001,0.901;                 117P    144
128,1,1,1,1,0,0,1,0,0,-0.00100000000000003,-0.00100000000000003,     119P    145
0.2296,0.2296,-0.001,-0.001,0.901,0.901,1.,1.,1.,1.,-4.5,-4.51,      119P    146
-0.01,-4.5,-4.51,2.296,-4.5,4.51,-0.01,-4.5,4.51,2.296,              119P    147
-0.00100000000000003,0.2296,-0.001,0.901;                            119P    148
128,1,1,1,1,0,0,1,0,0,-0.2296,-0.2296,0.001,0.001,-0.001,-0.001,     121P    149
0.901,0.901,1.,1.,1.,1.,-4.51,-4.5,2.296,-4.51,-4.5,-0.01,4.51,      121P    150
-4.5,2.296,4.51,-4.5,-0.01,-0.2296,0.001,-0.001,0.901;               121P    151
128,1,1,1,1,0,0,1,0,0,-0.451,-0.451,0.451,0.451,-0.451,-0.451,       123P    152
0.451,0.451,1.,1.,1.,1.,4.51,-4.51,0.,-4.51,-4.51,0.,4.51,4.51,      123P    153
0.,-4.51,4.51,0.,-0.451,0.451,-0.451,0.451;                          123P    154
128,1,4,1,2,0,0,0,0,0,5.,5.,9.,9.,-1.5707963267949,                  125P    155
-1.5707963267949,-1.5707963267949,-2.22044604925031D-16,             125P    156
-2.22044604925031D-16,1.5707963267949,1.5707963267949,               125P    157
1.5707963267949,1.,1.,0.707106781186547,0.707106781186547,1.,1.,     125P    158
0.707106781186547,0.707106781186547,1.,1.,-4.5,1.5,2.286,-0.5,       125P    159
1.5,2.286,-4.5,1.5,1.286,-0.5,1.5,1.286,-4.5,2.5,1.286,-0.5,2.5,     125P    160
1.286,-4.5,3.5,1.286,-0.5,3.5,1.286,-4.5,3.5,2.286,-0.5,3.5,         125P    161
2.286,5.,9.,-1.5707963267949,1.5707963267949;                        125P    162
128,4,2,2,2,0,0,0,0,0,0.,0.,0.,1.5707963267949,1.5707963267949,      127P    163
3.14159265358979,3.14159265358979,3.14159265358979,                  127P    164
1.5707963267949,1.5707963267949,1.5707963267949,                     127P    165
3.14159265358979,3.14159265358979,3.14159265358979,1.,               127P    166
0.707106781186548,1.,0.707106781186548,1.,0.707106781186548,0.5,     127P    167
0.707106781186548,0.5,0.707106781186548,1.,0.707106781186548,1.,     127P    168
0.707106781186548,1.,-0.5,3.5,2.286,-0.5,3.5,1.286,-0.5,2.5,         127P    169
1.286,-0.5,1.5,1.286,-0.5,1.5,2.286,3.5,3.5,2.286,3.5,3.5,1.286,     127P    170
2.5,2.5,1.286,1.5,1.5,1.286,1.5,1.5,2.286,3.5,                       127P    171
-0.499999999999999,2.286,3.5,-0.499999999999999,1.286,2.5,           127P    172
-0.499999999999999,1.286,1.5,-0.499999999999999,1.286,1.5,           127P    173
-0.499999999999999,2.286,0.,3.14159265358979,1.5707963267949,        127P    174
3.14159265358979;                                                    127P    175
128,1,4,1,2,0,0,0,0,0,0.,0.,4.,4.,-1.5707963267949,                  129P    176
-1.5707963267949,-1.5707963267949,0.,0.,1.5707963267949,             129P    177
1.5707963267949,1.5707963267949,1.,1.,0.707106781186548,             129P    178
0.707106781186548,1.,1.,0.707106781186548,0.707106781186548,1.,      129P    179
1.,1.5,-0.499999999999999,2.286,1.5,-4.5,2.286,1.5,                  129P    180
-0.499999999999999,1.286,1.5,-4.5,1.286,2.5,-0.499999999999999,      129P    181
1.286,2.5,-4.5,1.286,3.5,-0.499999999999999,1.286,3.5,-4.5,          129P    182
1.286,3.5,-0.499999999999999,2.286,3.5,-4.5,2.286,0.,4.,             129P    183
-1.5707963267949,1.5707963267949;                                    129P    184
128,1,8,1,2,0,1,0,0,1,-1.90500000000001,-1.90500000000001,           131P    185
8.88178419700125D-16,8.88178419700125D-16,-3.14159265358979,         131P    186
-3.14159265358979,-3.14159265358979,-1.5707963267949,                131P    187
-1.5707963267949,0.,0.,1.5707963267949,1.5707963267949,              131P    188
3.14159265358979,3.14159265358979,3.14159265358979,1.,1.,            131P    189
0.707106781186548,0.707106781186548,1.,1.,0.707106781186548,         131P    190
0.707106781186548,1.,1.,0.707106781186548,0.707106781186548,1.,      131P    191
1.,0.707106781186548,0.707106781186548,1.,1.,-2.69999999999999,      131P    192
-1.5,0.,-2.69999999999999,-1.5,2.286,-2.69999999999999,              131P    193
-2.69999999999999,0.,-2.69999999999999,-2.69999999999999,2.286,      131P    194
-1.5,-2.69999999999999,0.,-1.5,-2.69999999999999,2.286,              131P    195
-0.300000000000007,-2.69999999999999,0.,-0.300000000000007,          131P    196
-2.69999999999999,2.286,-0.300000000000007,-1.5,0.,                  131P    197
-0.300000000000007,-1.5,2.286,-0.300000000000007,                    131P    198
-0.300000000000006,0.,-0.300000000000007,-0.300000000000006,         131P    199
2.286,-1.5,-0.300000000000006,0.,-1.5,-0.300000000000006,2.286,      131P    200
-2.69999999999999,-0.300000000000006,0.,-2.69999999999999,           131P    201
-0.300000000000006,2.286,-2.69999999999999,-1.5,0.,                  131P    202
-2.69999999999999,-1.5,2.286,-1.90500000000001,                      131P    203
8.88178419700125D-16,-3.14159265358979,3.14159265358979;             131P    204
502,20,-0.5,3.5,2.286,-4.5,3.5,2.286,3.5,-0.499999999999999,         133P    205
2.286,3.5,-4.5,2.286,4.5,-4.5,2.286,4.5,4.5,2.286,-4.5,4.5,          133P    206
2.286,-4.5,1.5,2.286,-0.5,1.5,2.286,-4.5,-4.5,2.286,1.5,-4.5,        133P    207
2.286,1.5,-0.499999999999999,2.286,-0.300000000000013,-1.5,          133P    208
2.286,-2.69999999999999,-1.5,2.286,4.5,-4.5,0.,4.5,4.5,0.,-4.5,      133P    209
4.5,0.,-4.5,-4.5,0.,-0.300000000000001,-1.5,0.,                      133P    210
-2.69999999999999,-1.5,0.;                                           133P    211
504,29,53,133,1,133,2,55,133,3,133,1,57,133,4,133,3,59,133,4,        135P    212
133,5,61,133,5,133,6,63,133,6,133,7,65,133,7,133,2,67,133,8,133,     135P    213
9,69,133,8,133,10,71,133,10,133,11,73,133,12,133,11,75,133,9,        135P    214
133,12,77,133,13,133,14,79,133,14,133,13,81,133,15,133,16,83,        135P    215
133,6,133,16,85,133,5,133,15,87,133,16,133,17,89,133,7,133,17,       135P    216
91,133,8,133,2,93,133,17,133,18,95,133,10,133,18,97,133,4,133,       135P    217
11,99,133,18,133,15,101,133,19,133,20,103,133,20,133,19,105,133,     135P    218
1,133,9,107,133,3,133,12,109,133,20,133,14;                          135P    219
406,1,5HBody1;                                                       137P    220
314,62.7450980392157,62.7450980392157,62.7450980392157,13HSteel      139P    221
- Satin;                                                             139P    222
S      1G      3D    140P    222                                        T      1
