                                                                        S      1
,,39HAmphenol DLHR-L01D-E1BD Pitot Tube B v1,39HAmphenol DLHR-L01D-E1BD G      1
Pitot Tube B v1,7Hunknown,7Hunknown,32,38,7,99,15,,1.,2,2HMM,1,0.08,15H2G      2
0200925.111211,0.01,10000.,7Hunknown,7Hunknown,11,0,15H20190206.201133; G      3
     186       1                                                00000000D      1
     186            -139       1       0                               0D      2
     514       2                                                00010000D      3
     514                       1       1                               0D      4
     510       3                                                00010000D      5
     510            -139       1       1                               0D      6
     510       4                                                00010000D      7
     510            -139       1       1                               0D      8
     510       5                                                00010000D      9
     510            -139       1       1                               0D     10
     510       6                                                00010000D     11
     510            -139       1       1                               0D     12
     510       7                                                00010000D     13
     510            -139       1       1                               0D     14
     510       8                                                00010000D     15
     510            -139       1       1                               0D     16
     510       9                                                00010000D     17
     510            -139       1       1                               0D     18
     510      10                                                00010000D     19
     510            -139       1       1                               0D     20
     510      11                                                00010000D     21
     510            -139       1       1                               0D     22
     510      12                                                00010000D     23
     510            -139       1       1                               0D     24
     510      13                                                00010000D     25
     510            -139       1       1                               0D     26
     508      14                                                00010000D     27
     508                       2       1                               0D     28
     508      16                                                00010000D     29
     508                       2       1                               0D     30
     508      18                                                00010000D     31
     508                       1       1                               0D     32
     508      19                                                00010000D     33
     508                       1       1                               0D     34
     508      20                                                00010000D     35
     508                       1       1                               0D     36
     508      21                                                00010000D     37
     508                       2       1                               0D     38
     508      23                                                00010000D     39
     508                       2       1                               0D     40
     508      25                                                00010000D     41
     508                       1       1                               0D     42
     508      26                                                00010000D     43
     508                       1       1                               0D     44
     508      27                                                00010000D     45
     508                       1       1                               0D     46
     508      28                                                00010000D     47
     508                       1       1                               0D     48
     508      29                                                00010000D     49
     508                       1       1                               0D     50
     508      30                                                00010000D     51
     508                       2       1                               0D     52
     126      32                                                00010000D     53
     126       0               5       0                               0D     54
     126      37                                                00010000D     55
     126       0               2       0                               0D     56
     126      39                                                00010000D     57
     126       0               2       0                               0D     58
     126      41                                                00010000D     59
     126       0               2       0                               0D     60
     126      43                                                00010000D     61
     126       0               2       0                               0D     62
     126      45                                                00010000D     63
     126       0               2       0                               0D     64
     126      47                                                00010000D     65
     126       0               2       0                               0D     66
     126      49                                                00010000D     67
     126       0               2       0                               0D     68
     126      51                                                00010000D     69
     126       0               2       0                               0D     70
     126      53                                                00010000D     71
     126       0               4       0                               0D     72
     126      57                                                00010000D     73
     126       0               2       0                               0D     74
     126      59                                                00010000D     75
     126       0               2       0                               0D     76
     126      61                                                00010000D     77
     126       0               5       0                               0D     78
     126      66                                                00010000D     79
     126       0               7       0                               0D     80
     126      73                                                00010000D     81
     126       0               2       0                               0D     82
     126      75                                                00010000D     83
     126       0               2       0                               0D     84
     126      77                                                00010000D     85
     126       0               2       0                               0D     86
     126      79                                                00010000D     87
     126       0               2       0                               0D     88
     126      81                                                00010000D     89
     126       0               2       0                               0D     90
     126      83                                                00010000D     91
     126       0               6       0                               0D     92
     126      89                                                00010000D     93
     126       0               2       0                               0D     94
     126      91                                                00010000D     95
     126       0               2       0                               0D     96
     126      93                                                00010000D     97
     126       0               7       0                               0D     98
     126     100                                                00010000D     99
     126       0               2       0                               0D    100
     126     102                                                00010000D    101
     126       0               6       0                               0D    102
     126     108                                                00010000D    103
     126       0               8       0                               0D    104
     126     116                                                00010000D    105
     126       0               7       0                               0D    106
     126     123                                                00010000D    107
     126       0               8       0                               0D    108
     126     131                                                00010000D    109
     126       0               4       0                               0D    110
     128     135                                                00010000D    111
     128       0    -139       3       0                               0D    112
     128     138                                                00010000D    113
     128       0    -139       3       0                               0D    114
     128     141                                                00010000D    115
     128       0    -139       3       0                               0D    116
     128     144                                                00010000D    117
     128       0    -139       3       0                               0D    118
     128     147                                                00010000D    119
     128       0    -139       3       0                               0D    120
     128     150                                                00010000D    121
     128       0    -139       4       0                               0D    122
     128     154                                                00010000D    123
     128       0    -139       3       0                               0D    124
     128     157                                                00010000D    125
     128       0    -139       8       0                               0D    126
     128     165                                                00010000D    127
     128       0    -139      13       0                               0D    128
     128     178                                                00010000D    129
     128       0    -139       9       0                               0D    130
     128     187                                                00010000D    131
     128       0    -139      20       0                               0D    132
     502     207                                                00010000D    133
     502                       6       1                               0D    134
     504     213                                                00010001D    135
     504                       8       1                               0D    136
     406     221                                                00000000D    137
     406                       1      15                               0D    138
     314     222                                                00000200D    139
     314                       2       0                               0D    140
186,3,1,0,0,1,137;                                                     1P      1
514,11,5,1,7,1,9,1,11,1,13,1,15,1,17,1,19,1,21,1,23,1,25,1;            3P      2
510,111,1,1,27;                                                        5P      3
510,113,2,1,29,31;                                                     7P      4
510,115,1,1,33;                                                        9P      5
510,117,1,1,35;                                                       11P      6
510,119,1,1,37;                                                       13P      7
510,121,1,1,39;                                                       15P      8
510,123,2,1,41,43;                                                    17P      9
510,125,1,1,45;                                                       19P     10
510,127,1,1,47;                                                       21P     11
510,129,1,1,49;                                                       23P     12
510,131,1,1,51;                                                       25P     13
508,7,0,135,1,1,0,0,135,2,1,0,0,135,3,0,0,0,135,4,0,0,0,135,5,0,      27P     14
0,0,135,6,0,0,0,135,7,1,0;                                            27P     15
508,5,0,135,8,0,0,0,135,9,1,0,0,135,10,1,0,0,135,11,1,0,0,135,        29P     16
12,0,0;                                                               29P     17
508,2,0,135,13,1,0,0,135,14,1,0;                                      31P     18
508,4,0,135,5,1,0,0,135,15,0,0,0,135,16,0,0,0,135,17,1,0;             33P     19
508,4,0,135,4,1,0,0,135,18,0,0,0,135,19,0,0,0,135,15,1,0;             35P     20
508,6,0,135,20,1,0,0,135,8,1,0,0,135,21,0,0,0,135,22,0,0,0,135,       37P     21
18,1,0,0,135,3,1,0;                                                   37P     22
508,6,0,135,23,1,0,0,135,6,1,0,0,135,17,0,0,0,135,24,0,0,0,135,       39P     23
21,1,0,0,135,12,1,0;                                                  39P     24
508,4,0,135,16,1,0,0,135,19,1,0,0,135,22,1,0,0,135,24,1,0;            41P     25
508,2,0,135,25,0,0,0,135,26,0,0;                                      43P     26
508,4,0,135,27,0,0,0,135,9,0,0,0,135,20,0,0,0,135,2,0,0;              45P     27
508,4,0,135,28,0,0,0,135,10,0,0,0,135,27,1,0,0,135,1,0,0;             47P     28
508,4,0,135,23,0,0,0,135,11,0,0,0,135,28,1,0,0,135,7,0,0;             49P     29
508,6,0,135,13,0,0,0,135,14,0,0,0,135,29,1,0,0,135,26,1,0,0,135,      51P     30
25,1,0,0,135,29,0,0;                                                  51P     31
126,2,2,0,0,0,0,-3.14159265358979,-3.14159265358979,                  53P     32
-3.14159265358979,-1.5707963267949,-1.5707963267949,                  53P     33
-1.5707963267949,1.,0.707106781186547,1.,3.5,-0.499999999999998,      53P     34
0.,3.5,3.5,0.,-0.500000000000001,3.5,0.,-3.14159265358979,            53P     35
-1.5707963267949,0.,0.,0.;                                            53P     36
126,1,1,0,0,1,0,-1.,-1.,0.,0.,1.,1.,-0.5,3.5,0.,-4.5,3.5,0.,-1.,      55P     37
0.,0.,0.,0.;                                                          55P     38
126,1,1,0,0,1,0,0.,0.,1.,1.,1.,1.,-4.5,4.5,0.,-4.5,3.5,0.,0.,1.,      57P     39
0.,0.,0.;                                                             57P     40
126,1,1,0,0,1,0,0.,0.,1.,1.,1.,1.,4.5,4.5,0.,-4.5,4.5,0.,0.,1.,       59P     41
0.,0.,0.;                                                             59P     42
126,1,1,0,0,1,0,0.,0.,1.,1.,1.,1.,4.5,-4.5,0.,4.5,4.5,0.,0.,1.,       61P     43
0.,0.,0.;                                                             61P     44
126,1,1,0,0,1,0,0.,0.,1.,1.,1.,1.,3.5,-4.5,0.,4.5,-4.5,0.,0.,1.,      63P     45
0.,0.,0.;                                                             63P     46
126,1,1,0,0,1,0,-1.,-1.,0.,0.,1.,1.,3.5,-4.5,0.,3.5,                  65P     47
-0.499999999999999,0.,-1.,0.,0.,0.,0.;                                65P     48
126,1,1,0,0,1,0,4.62592926927149D-17,4.62592926927149D-17,1.,1.,      67P     49
1.,1.,-4.5,1.5,0.,-4.5,-4.5,0.,4.62592926927149D-17,1.,0.,0.,0.;      67P     50
126,1,1,0,0,1,0,0.,0.,1.,1.,1.,1.,-4.5,1.5,0.,-0.5,1.5,0.,0.,1.,      69P     51
0.,0.,0.;                                                             69P     52
126,2,2,0,0,0,0,-1.5707963267949,-1.5707963267949,                    71P     53
-1.5707963267949,0.,0.,0.,1.,0.707106781186548,1.,-0.5,1.5,0.,        71P     54
1.5,1.5,0.,1.5,-0.499999999999999,0.,-1.5707963267949,0.,0.,0.,       71P     55
0.;                                                                   71P     56
126,1,1,0,0,1,0,0.,0.,1.,1.,1.,1.,1.5,-0.499999999999999,0.,1.5,      73P     57
-4.5,0.,0.,1.,0.,0.,0.;                                               73P     58
126,1,1,0,0,1,0,0.,0.,1.,1.,1.,1.,-4.5,-4.5,0.,1.5,-4.5,0.,0.,        75P     59
1.,0.,0.,0.;                                                          75P     60
126,4,2,0,0,0,0,0.,0.,0.,1.5707963267949,1.5707963267949,             77P     61
3.14159265358979,3.14159265358979,3.14159265358979,1.,                77P     62
0.707106781186548,1.,0.707106781186547,1.,-0.300000000000001,         77P     63
-1.5,0.,-0.300000000000001,-0.3,0.,-1.5,-0.3,0.,-2.7,-0.3,0.,         77P     64
-2.7,-1.5,0.,0.,3.14159265358979,0.,0.,0.;                            77P     65
126,4,2,0,0,0,0,3.14159265358979,3.14159265358979,                    79P     66
3.14159265358979,4.71238898038469,4.71238898038469,                   79P     67
6.28318530717959,6.28318530717959,6.28318530717959,1.,                79P     68
0.707106781186547,1.,0.707106781186548,1.,-2.7,-1.5,0.,-2.7,          79P     69
-2.7,0.,-1.5,-2.7,0.,-0.300000000000001,-2.7,0.,                      79P     70
-0.300000000000001,-1.5,0.,3.14159265358979,6.28318530717959,0.,      79P     71
0.,0.;                                                                79P     72
126,1,1,0,0,1,0,0.,0.,1.,1.,1.,1.,4.5,4.5,2.286,4.5,4.5,0.,0.,        81P     73
1.,0.,0.,0.;                                                          81P     74
126,1,1,0,0,1,0,0.,0.,1.,1.,1.,1.,4.5,-4.5,2.286,4.5,4.5,2.286,       83P     75
0.,1.,0.,0.,0.;                                                       83P     76
126,1,1,0,0,1,0,0.,0.,1.,1.,1.,1.,4.5,-4.5,2.286,4.5,-4.5,0.,0.,      85P     77
1.,0.,0.,0.;                                                          85P     78
126,1,1,0,0,1,0,0.,0.,1.,1.,1.,1.,-4.5,4.5,2.286,-4.5,4.5,0.,0.,      87P     79
1.,0.,0.,0.;                                                          87P     80
126,1,1,0,0,1,0,0.,0.,1.,1.,1.,1.,4.5,4.5,2.286,-4.5,4.5,2.286,       89P     81
0.,1.,0.,0.,0.;                                                       89P     82
126,4,2,0,0,0,0,1.5707963267949,1.5707963267949,1.5707963267949,      91P     83
3.14159265358979,3.14159265358979,4.71238898038469,                   91P     84
4.71238898038469,4.71238898038469,1.,0.707106781186548,1.,            91P     85
0.707106781186548,1.,-4.5,3.5,-6.12323399573677D-17,-4.5,3.5,1.,      91P     86
-4.5,2.5,1.,-4.5,1.5,1.,-4.5,1.5,1.83697019872103D-16,                91P     87
1.5707963267949,4.71238898038469,0.,0.,0.;                            91P     88
126,1,1,0,0,1,0,0.,0.,1.,1.,1.,1.,-4.5,-4.5,2.286,-4.5,-4.5,0.,       93P     89
0.,1.,0.,0.,0.;                                                       93P     90
126,1,1,0,0,1,0,0.,0.,1.,1.,1.,1.,-4.5,4.5,2.286,-4.5,-4.5,           95P     91
2.286,0.,1.,0.,0.,0.;                                                 95P     92
126,4,2,0,0,0,0,4.71238898038469,4.71238898038469,                    97P     93
4.71238898038469,6.28318530717959,6.28318530717959,                   97P     94
7.85398163397448,7.85398163397448,7.85398163397448,1.,                97P     95
0.707106781186547,1.,0.707106781186547,1.,1.5,-4.5,                   97P     96
-1.83697019872103D-16,1.5,-4.5,1.,2.5,-4.5,1.,3.5,-4.5,1.,3.5,        97P     97
-4.5,3.06161699786838D-16,4.71238898038469,7.85398163397448,0.,       97P     98
0.,0.;                                                                97P     99
126,1,1,0,0,1,0,0.,0.,1.,1.,1.,1.,-4.5,-4.5,2.286,4.5,-4.5,           99P    100
2.286,0.,1.,0.,0.,0.;                                                 99P    101
126,4,2,0,0,0,0,0.,0.,0.,1.5707963267949,1.5707963267949,            101P    102
3.14159265358979,3.14159265358979,3.14159265358979,1.,               101P    103
0.707106781186548,1.,0.707106781186547,1.,-0.300000000000013,        101P    104
-1.5,2.286,-0.300000000000013,-0.300000000000012,2.286,-1.5,         101P    105
-0.300000000000012,2.286,-2.69999999999999,-0.300000000000012,       101P    106
2.286,-2.69999999999999,-1.5,2.286,0.,3.14159265358979,0.,0.,0.;     101P    107
126,4,2,0,0,0,0,3.14159265358979,3.14159265358979,                   103P    108
3.14159265358979,4.71238898038469,4.71238898038469,                  103P    109
6.28318530717959,6.28318530717959,6.28318530717959,1.,               103P    110
0.707106781186547,1.,0.707106781186548,1.,-2.69999999999999,         103P    111
-1.5,2.286,-2.69999999999999,-2.69999999999999,2.286,-1.5,           103P    112
-2.69999999999999,2.286,-0.300000000000013,-2.69999999999999,        103P    113
2.286,-0.300000000000013,-1.5,2.286,3.14159265358979,                103P    114
6.28318530717959,0.,0.,0.;                                           103P    115
126,4,2,0,0,0,0,4.71238898038469,4.71238898038469,                   105P    116
4.71238898038469,6.28318530717959,6.28318530717959,                  105P    117
7.85398163397448,7.85398163397448,7.85398163397448,1.,               105P    118
0.707106781186548,1.,0.707106781186547,1.,-0.5,1.5,                  105P    119
-1.83697019872103D-16,-0.5,1.5,1.,-0.5,2.5,1.,-0.5,3.5,1.,-0.5,      105P    120
3.5,3.06161699786838D-16,4.71238898038469,7.85398163397448,0.,       105P    121
0.,0.;                                                               105P    122
126,4,2,0,0,0,0,4.71238898038469,4.71238898038469,                   107P    123
4.71238898038469,6.28318530717959,6.28318530717959,                  107P    124
7.85398163397448,7.85398163397448,7.85398163397448,1.,               107P    125
0.707106781186547,1.,0.707106781186547,1.,1.5,                       107P    126
-0.499999999999999,-1.83697019872103D-16,1.5,-0.499999999999999,     107P    127
1.,2.5,-0.499999999999999,1.,3.5,-0.499999999999999,1.,3.5,          107P    128
-0.499999999999999,3.06161699786838D-16,4.71238898038469,            107P    129
7.85398163397448,0.,0.,0.;                                           107P    130
126,1,1,0,0,1,0,-1.90500000000001,-1.90500000000001,                 109P    131
1.11022302462516D-15,1.11022302462516D-15,1.,1.,                     109P    132
-2.69999999999999,-1.5,0.,-2.69999999999999,-1.5,2.286,              109P    133
-1.90500000000001,1.11022302462516D-15,0.,0.,0.;                     109P    134
128,1,1,1,1,0,0,1,0,0,-0.451,-0.451,0.451,0.451,-0.451,-0.451,       111P    135
0.451,0.451,1.,1.,1.,1.,4.51,-4.51,0.,-4.51,-4.51,0.,4.51,4.51,      111P    136
0.,-4.51,4.51,0.,-0.451,0.451,-0.451,0.451;                          111P    137
128,1,1,1,1,0,0,1,0,0,-0.151,-0.151,0.451,0.451,-0.451,-0.451,       113P    138
0.151,0.151,1.,1.,1.,1.,1.51,-4.51,0.,-4.51,-4.51,0.,1.51,1.51,      113P    139
0.,-4.51,1.51,0.,-0.151,0.451,-0.451,0.151;                          113P    140
128,1,1,1,1,0,0,1,0,0,-0.2296,-0.2296,0.001,0.001,-0.001,-0.001,     115P    141
0.901,0.901,1.,1.,1.,1.,4.5,-4.51,2.296,4.5,-4.51,-0.01,4.5,         115P    142
4.51,2.296,4.5,4.51,-0.01,-0.2296,0.001,-0.001,0.901;                115P    143
128,1,1,1,1,0,0,1,0,0,-0.001,-0.001,0.2296,0.2296,-0.001,-0.001,     117P    144
0.901,0.901,1.,1.,1.,1.,-4.51,4.5,-0.01,-4.51,4.5,2.296,4.51,        117P    145
4.5,-0.01,4.51,4.5,2.296,-0.001,0.2296,-0.001,0.901;                 117P    146
128,1,1,1,1,0,0,1,0,0,-0.001,-0.001,0.2296,0.2296,-0.001,-0.001,     119P    147
0.901,0.901,1.,1.,1.,1.,-4.5,-4.51,-0.01,-4.5,-4.51,2.296,-4.5,      119P    148
4.51,-0.01,-4.5,4.51,2.296,-0.001,0.2296,-0.001,0.901;               119P    149
128,1,1,1,1,0,0,1,0,0,-0.2296,-0.2296,0.001,0.001,-0.001,-0.001,     121P    150
0.901,0.901,1.,1.,1.,1.,-4.51,-4.5,2.296,-4.51,-4.5,                 121P    151
-0.0100000000000003,4.51,-4.5,2.296,4.51,-4.5,                       121P    152
-0.0100000000000003,-0.2296,0.001,-0.001,0.901;                      121P    153
128,1,1,1,1,0,0,1,0,0,-0.451,-0.451,0.451,0.451,-0.451,-0.451,       123P    154
0.451,0.451,1.,1.,1.,1.,-4.51,-4.51,2.286,4.51,-4.51,2.286,          123P    155
-4.51,4.51,2.286,4.51,4.51,2.286,-0.451,0.451,-0.451,0.451;          123P    156
128,1,4,1,2,0,0,0,0,0,1.,1.,5.,5.,1.5707963267949,                   125P    157
1.5707963267949,1.5707963267949,3.14159265358979,                    125P    158
3.14159265358979,4.71238898038469,4.71238898038469,                  125P    159
4.71238898038469,1.,1.,0.707106781186548,0.707106781186548,1.,       125P    160
1.,0.707106781186548,0.707106781186548,1.,1.,-4.5,3.5,0.,-0.5,       125P    161
3.5,0.,-4.5,3.5,1.,-0.5,3.5,1.,-4.5,2.5,1.,-0.5,2.5,1.,-4.5,1.5,     125P    162
1.,-0.5,1.5,1.,-4.5,1.5,0.,-0.5,1.5,0.,1.,5.,1.5707963267949,        125P    163
4.71238898038469;                                                    125P    164
128,4,2,2,2,0,0,0,0,0,-3.14159265358979,-3.14159265358979,           127P    165
-3.14159265358979,-1.5707963267949,-1.5707963267949,0.,0.,0.,        127P    166
1.5707963267949,1.5707963267949,1.5707963267949,                     127P    167
3.14159265358979,3.14159265358979,3.14159265358979,1.,               127P    168
0.707106781186547,1.,0.707106781186548,1.,0.707106781186548,0.5,     127P    169
0.707106781186548,0.5,0.707106781186548,1.,0.707106781186547,1.,     127P    170
0.707106781186548,1.,-0.5,1.5,1.22464679914735D-16,-0.5,1.5,1.,      127P    171
-0.5,2.5,1.,-0.5,3.5,1.,-0.5,3.5,0.,1.5,1.5,                         127P    172
1.22464679914735D-16,1.5,1.5,1.,2.5,2.5,1.,3.5,3.5,1.,3.5,3.5,       127P    173
0.,1.5,-0.499999999999999,1.22464679914735D-16,1.5,                  127P    174
-0.499999999999999,1.,2.5,-0.499999999999999,1.,3.5,                 127P    175
-0.499999999999999,1.,3.5,-0.499999999999999,0.,                     127P    176
-3.14159265358979,0.,1.5707963267949,3.14159265358979;               127P    177
128,1,4,1,2,0,0,0,0,0,0.,0.,4.,4.,1.5707963267949,                   129P    178
1.5707963267949,1.5707963267949,3.14159265358979,                    129P    179
3.14159265358979,4.71238898038469,4.71238898038469,                  129P    180
4.71238898038469,1.,1.,0.707106781186548,0.707106781186548,1.,       129P    181
1.,0.707106781186548,0.707106781186548,1.,1.,3.5,                    129P    182
-0.499999999999999,0.,3.5,-4.5,0.,3.5,-0.499999999999999,1.,3.5,     129P    183
-4.5,1.,2.5,-0.499999999999999,1.,2.5,-4.5,1.,1.5,                   129P    184
-0.499999999999999,1.,1.5,-4.5,1.,1.5,-0.499999999999999,0.,1.5,     129P    185
-4.5,0.,0.,4.,1.5707963267949,4.71238898038469;                      129P    186
128,1,8,1,2,0,1,0,0,1,-1.90500000000001,-1.90500000000001,           131P    187
1.11022302462516D-15,1.11022302462516D-15,-3.14159265358979,         131P    188
-3.14159265358979,-3.14159265358979,-1.5707963267949,                131P    189
-1.5707963267949,0.,0.,1.5707963267949,1.5707963267949,              131P    190
3.14159265358979,3.14159265358979,3.14159265358979,1.,1.,            131P    191
0.707106781186548,0.707106781186548,1.,1.,0.707106781186548,         131P    192
0.707106781186548,1.,1.,0.707106781186548,0.707106781186548,1.,      131P    193
1.,0.707106781186548,0.707106781186548,1.,1.,-2.69999999999999,      131P    194
-1.5,0.,-2.69999999999999,-1.5,2.286,-2.69999999999999,              131P    195
-2.69999999999999,0.,-2.69999999999999,-2.69999999999999,2.286,      131P    196
-1.5,-2.69999999999999,0.,-1.5,-2.69999999999999,2.286,              131P    197
-0.300000000000007,-2.69999999999999,0.,-0.300000000000007,          131P    198
-2.69999999999999,2.286,-0.300000000000007,-1.5,0.,                  131P    199
-0.300000000000007,-1.5,2.286,-0.300000000000007,                    131P    200
-0.300000000000006,0.,-0.300000000000007,-0.300000000000006,         131P    201
2.286,-1.5,-0.300000000000006,0.,-1.5,-0.300000000000006,2.286,      131P    202
-2.69999999999999,-0.300000000000006,0.,-2.69999999999999,           131P    203
-0.300000000000006,2.286,-2.69999999999999,-1.5,0.,                  131P    204
-2.69999999999999,-1.5,2.286,-1.90500000000001,                      131P    205
1.11022302462516D-15,-3.14159265358979,3.14159265358979;             131P    206
502,20,3.5,-0.499999999999999,0.,-0.5,3.5,0.,-4.5,3.5,0.,-4.5,       133P    207
4.5,0.,4.5,4.5,0.,4.5,-4.5,0.,3.5,-4.5,0.,-4.5,1.5,0.,-4.5,-4.5,     133P    208
0.,-0.5,1.5,0.,1.5,-0.499999999999999,0.,1.5,-4.5,0.,                133P    209
-0.300000000000001,-1.5,0.,-2.69999999999999,-1.5,0.,4.5,4.5,        133P    210
2.286,4.5,-4.5,2.286,-4.5,4.5,2.286,-4.5,-4.5,2.286,                 133P    211
-0.300000000000013,-1.5,2.286,-2.69999999999999,-1.5,2.286;          133P    212
504,29,53,133,1,133,2,55,133,2,133,3,57,133,4,133,3,59,133,5,        135P    213
133,4,61,133,6,133,5,63,133,7,133,6,65,133,7,133,1,67,133,8,133,     135P    214
9,69,133,8,133,10,71,133,10,133,11,73,133,11,133,12,75,133,9,        135P    215
133,12,77,133,13,133,14,79,133,14,133,13,81,133,15,133,5,83,133,     135P    216
16,133,15,85,133,16,133,6,87,133,17,133,4,89,133,15,133,17,91,       135P    217
133,3,133,8,93,133,18,133,9,95,133,17,133,18,97,133,12,133,7,99,     135P    218
133,18,133,16,101,133,19,133,20,103,133,20,133,19,105,133,10,        135P    219
133,2,107,133,11,133,1,109,133,14,133,20;                            135P    220
406,1,5HBody1;                                                       137P    221
314,62.7450980392157,62.7450980392157,62.7450980392157,13HSteel      139P    222
- Satin;                                                             139P    223
S      1G      3D    140P    223                                        T      1
