                                                                        S      1
,,21HSDP3X pitot tube 1 v1,21HSDP3X pitot tube 1 v1,7Hunknown,7Hunknown,G      1
32,38,7,99,15,,1.,2,2HMM,1,0.08,15H20200925.111153,0.01,10000.,7HunknownG      2
,7Hunknown,11,0,15H20190206.201136;                                     G      3
     186       1                                                00000000D      1
     186            -271       1       0                               0D      2
     514       2                                                00010000D      3
     514                       2       1                               0D      4
     510       4                                                00010000D      5
     510            -271       1       1                               0D      6
     510       5                                                00010000D      7
     510            -271       1       1                               0D      8
     510       6                                                00010000D      9
     510            -271       1       1                               0D     10
     510       7                                                00010000D     11
     510            -271       1       1                               0D     12
     510       8                                                00010000D     13
     510            -271       1       1                               0D     14
     510       9                                                00010000D     15
     510            -271       1       1                               0D     16
     510      10                                                00010000D     17
     510            -271       1       1                               0D     18
     510      11                                                00010000D     19
     510            -271       1       1                               0D     20
     510      12                                                00010000D     21
     510            -271       1       1                               0D     22
     510      13                                                00010000D     23
     510            -271       1       1                               0D     24
     510      14                                                00010000D     25
     510            -271       1       1                               0D     26
     510      15                                                00010000D     27
     510            -271       1       1                               0D     28
     510      16                                                00010000D     29
     510            -271       1       1                               0D     30
     510      17                                                00010000D     31
     510            -271       1       1                               0D     32
     510      18                                                00010000D     33
     510            -271       1       1                               0D     34
     510      19                                                00010000D     35
     510            -271       1       1                               0D     36
     510      20                                                00010000D     37
     510            -271       1       1                               0D     38
     510      21                                                00010000D     39
     510            -271       1       1                               0D     40
     510      22                                                00010000D     41
     510            -271       1       1                               0D     42
     510      23                                                00010000D     43
     510            -271       1       1                               0D     44
     510      24                                                00010000D     45
     510            -271       1       1                               0D     46
     510      25                                                00010000D     47
     510            -271       1       1                               0D     48
     508      26                                                00010000D     49
     508                       2       1                               0D     50
     508      28                                                00010000D     51
     508                       5       1                               0D     52
     508      33                                                00010000D     53
     508                       2       1                               0D     54
     508      35                                                00010000D     55
     508                       1       1                               0D     56
     508      36                                                00010000D     57
     508                       1       1                               0D     58
     508      37                                                00010000D     59
     508                       2       1                               0D     60
     508      39                                                00010000D     61
     508                       2       1                               0D     62
     508      41                                                00010000D     63
     508                       2       1                               0D     64
     508      43                                                00010000D     65
     508                       2       1                               0D     66
     508      45                                                00010000D     67
     508                       1       1                               0D     68
     508      46                                                00010000D     69
     508                       1       1                               0D     70
     508      47                                                00010000D     71
     508                       1       1                               0D     72
     508      48                                                00010000D     73
     508                       1       1                               0D     74
     508      49                                                00010000D     75
     508                       1       1                               0D     76
     508      50                                                00010000D     77
     508                       1       1                               0D     78
     508      51                                                00010000D     79
     508                       2       1                               0D     80
     508      53                                                00010000D     81
     508                       1       1                               0D     82
     508      54                                                00010000D     83
     508                       1       1                               0D     84
     508      55                                                00010000D     85
     508                       1       1                               0D     86
     508      56                                                00010000D     87
     508                       1       1                               0D     88
     508      57                                                00010000D     89
     508                       1       1                               0D     90
     508      58                                                00010000D     91
     508                       1       1                               0D     92
     508      59                                                00010000D     93
     508                       1       1                               0D     94
     126      60                                                00010000D     95
     126       0               2       0                               0D     96
     126      62                                                00010000D     97
     126       0               4       0                               0D     98
     126      66                                                00010000D     99
     126       0               2       0                               0D    100
     126      68                                                00010000D    101
     126       0               2       0                               0D    102
     126      70                                                00010000D    103
     126       0               2       0                               0D    104
     126      72                                                00010000D    105
     126       0               2       0                               0D    106
     126      74                                                00010000D    107
     126       0               2       0                               0D    108
     126      76                                                00010000D    109
     126       0               2       0                               0D    110
     126      78                                                00010000D    111
     126       0               5       0                               0D    112
     126      83                                                00010000D    113
     126       0               3       0                               0D    114
     126      86                                                00010000D    115
     126       0               2       0                               0D    116
     126      88                                                00010000D    117
     126       0               3       0                               0D    118
     126      91                                                00010000D    119
     126       0               2       0                               0D    120
     126      93                                                00010000D    121
     126       0               2       0                               0D    122
     126      95                                                00010000D    123
     126       0               5       0                               0D    124
     126     100                                                00010000D    125
     126       0               2       0                               0D    126
     126     102                                                00010000D    127
     126       0               3       0                               0D    128
     126     105                                                00010000D    129
     126       0               4       0                               0D    130
     126     109                                                00010000D    131
     126       0               2       0                               0D    132
     126     111                                                00010000D    133
     126       0               2       0                               0D    134
     126     113                                                00010000D    135
     126       0               2       0                               0D    136
     126     115                                                00010000D    137
     126       0               3       0                               0D    138
     126     118                                                00010000D    139
     126       0               6       0                               0D    140
     126     124                                                00010000D    141
     126       0               3       0                               0D    142
     126     127                                                00010000D    143
     126       0               6       0                               0D    144
     126     133                                                00010000D    145
     126       0               2       0                               0D    146
     126     135                                                00010000D    147
     126       0               5       0                               0D    148
     126     140                                                00010000D    149
     126       0               6       0                               0D    150
     126     146                                                00010000D    151
     126       0               2       0                               0D    152
     126     148                                                00010000D    153
     126       0               2       0                               0D    154
     126     150                                                00010000D    155
     126       0               2       0                               0D    156
     126     152                                                00010000D    157
     126       0               2       0                               0D    158
     126     154                                                00010000D    159
     126       0               2       0                               0D    160
     126     156                                                00010000D    161
     126       0               2       0                               0D    162
     126     158                                                00010000D    163
     126       0               2       0                               0D    164
     126     160                                                00010000D    165
     126       0               6       0                               0D    166
     126     166                                                00010000D    167
     126       0               2       0                               0D    168
     126     168                                                00010000D    169
     126       0               2       0                               0D    170
     126     170                                                00010000D    171
     126       0               2       0                               0D    172
     126     172                                                00010000D    173
     126       0               2       0                               0D    174
     126     174                                                00010000D    175
     126       0               5       0                               0D    176
     126     179                                                00010000D    177
     126       0               3       0                               0D    178
     126     182                                                00010000D    179
     126       0               6       0                               0D    180
     126     188                                                00010000D    181
     126       0               2       0                               0D    182
     126     190                                                00010000D    183
     126       0               5       0                               0D    184
     126     195                                                00010000D    185
     126       0               2       0                               0D    186
     126     197                                                00010000D    187
     126       0               6       0                               0D    188
     126     203                                                00010000D    189
     126       0               2       0                               0D    190
     126     205                                                00010000D    191
     126       0               6       0                               0D    192
     126     211                                                00010000D    193
     126       0               2       0                               0D    194
     126     213                                                00010000D    195
     126       0               6       0                               0D    196
     126     219                                                00010000D    197
     126       0               2       0                               0D    198
     126     221                                                00010000D    199
     126       0               8       0                               0D    200
     126     229                                                00010000D    201
     126       0               6       0                               0D    202
     126     235                                                00010000D    203
     126       0               7       0                               0D    204
     126     242                                                00010000D    205
     126       0               2       0                               0D    206
     126     244                                                00010000D    207
     126       0               2       0                               0D    208
     126     246                                                00010000D    209
     126       0               3       0                               0D    210
     126     249                                                00010000D    211
     126       0               3       0                               0D    212
     126     252                                                00010000D    213
     126       0               2       0                               0D    214
     126     254                                                00010000D    215
     126       0               3       0                               0D    216
     126     257                                                00010000D    217
     126       0               2       0                               0D    218
     126     259                                                00010000D    219
     126       0               2       0                               0D    220
     128     261                                                00010000D    221
     128       0    -271       4       0                               0D    222
     128     265                                                00010000D    223
     128       0    -271       4       0                               0D    224
     128     269                                                00010000D    225
     128       0    -271       3       0                               0D    226
     128     272                                                00010000D    227
     128       0    -271       4       0                               0D    228
     128     276                                                00010000D    229
     128       0    -271       3       0                               0D    230
     128     279                                                00010000D    231
     128       0    -271       3       0                               0D    232
     128     282                                                00010000D    233
     128       0    -271       4       0                               0D    234
     128     286                                                00010000D    235
     128       0    -271       4       0                               0D    236
     128     290                                                00010000D    237
     128       0    -271       4       0                               0D    238
     128     294                                                00010000D    239
     128       0    -271      14       0                               0D    240
     128     308                                                00010000D    241
     128       0    -271       9       0                               0D    242
     128     317                                                00010000D    243
     128       0    -271      11       0                               0D    244
     128     328                                                00010000D    245
     128       0    -271      11       0                               0D    246
     128     339                                                00010000D    247
     128       0    -271       6       0                               0D    248
     128     345                                                00010000D    249
     128       0    -271       4       0                               0D    250
     128     349                                                00010000D    251
     128       0    -271       5       0                               0D    252
     128     354                                                00010000D    253
     128       0    -271       5       0                               0D    254
     128     359                                                00010000D    255
     128       0    -271       4       0                               0D    256
     128     363                                                00010000D    257
     128       0    -271       7       0                               0D    258
     128     370                                                00010000D    259
     128       0    -271       8       0                               0D    260
     128     378                                                00010000D    261
     128       0    -271       9       0                               0D    262
     128     387                                                00010000D    263
     128       0    -271       8       0                               0D    264
     502     395                                                00010000D    265
     502                      17       1                               0D    266
     504     412                                                00010001D    267
     504                      18       1                               0D    268
     406     430                                                00000000D    269
     406                       1      15                               0D    270
     314     431                                                00000200D    271
     314                       2       0                               0D    272
186,3,1,0,0,1,269;                                                     1P      1
514,22,5,1,7,1,9,1,11,1,13,1,15,1,17,1,19,1,21,1,23,1,25,1,27,1,       3P      2
29,1,31,1,33,1,35,1,37,1,39,1,41,1,43,1,45,1,47,1;                     3P      3
510,221,1,1,49;                                                        5P      4
510,223,1,1,51;                                                        7P      5
510,225,1,1,53;                                                        9P      6
510,227,1,1,55;                                                       11P      7
510,229,1,1,57;                                                       13P      8
510,231,1,1,59;                                                       15P      9
510,233,2,1,61,63;                                                    17P     10
510,235,1,1,65;                                                       19P     11
510,237,1,1,67;                                                       21P     12
510,239,1,1,69;                                                       23P     13
510,241,1,1,71;                                                       25P     14
510,243,1,1,73;                                                       27P     15
510,245,1,1,75;                                                       29P     16
510,247,1,1,77;                                                       31P     17
510,249,1,1,79;                                                       33P     18
510,251,1,1,81;                                                       35P     19
510,253,1,1,83;                                                       37P     20
510,255,1,1,85;                                                       39P     21
510,257,1,1,87;                                                       41P     22
510,259,1,1,89;                                                       43P     23
510,261,1,1,91;                                                       45P     24
510,263,1,1,93;                                                       47P     25
508,7,0,267,1,0,0,0,267,2,0,0,0,267,3,0,0,0,267,4,1,0,0,267,5,1,      49P     26
0,0,267,6,1,0,0,267,7,0,0;                                            49P     27
508,20,0,267,8,0,0,0,267,9,1,0,0,267,10,0,0,0,267,11,1,0,0,267,       51P     28
12,1,0,0,267,13,1,0,0,267,14,0,0,0,267,15,0,0,0,267,16,0,0,0,         51P     29
267,17,0,0,0,267,18,1,0,0,267,19,0,0,0,267,20,1,0,0,267,21,1,0,       51P     30
0,267,22,0,0,0,267,23,1,0,0,267,24,0,0,0,267,25,1,0,0,267,26,0,       51P     31
0,0,267,27,1,0;                                                       51P     32
508,6,0,267,28,1,0,0,267,13,0,0,0,267,29,1,0,0,267,30,1,0,0,267,      53P     33
31,0,0,0,267,4,0,0;                                                   53P     34
508,4,0,267,32,1,0,0,267,33,0,0,0,267,5,0,0,0,267,31,1,0;             55P     35
508,4,0,267,34,1,0,0,267,35,1,0,0,267,6,0,0,0,267,33,1,0;             57P     36
508,6,0,267,12,0,0,0,267,36,1,0,0,267,20,0,0,0,267,37,0,0,0,267,      59P     37
38,1,0,0,267,29,0,0;                                                  59P     38
508,7,0,267,39,0,0,0,267,34,0,0,0,267,32,0,0,0,267,30,0,0,0,267,      61P     39
38,0,0,0,267,40,0,0,0,267,41,1,0;                                     61P     40
508,8,0,267,42,0,0,0,267,43,1,0,0,267,44,0,0,0,267,45,1,0,0,267,      63P     41
46,0,0,0,267,47,1,0,0,267,48,0,0,0,267,49,1,0;                        63P     42
508,6,0,267,39,1,0,0,267,50,1,0,0,267,17,1,0,0,267,51,1,0,0,267,      65P     43
7,1,0,0,267,35,0,0;                                                   65P     44
508,4,0,267,19,1,0,0,267,52,1,0,0,267,40,1,0,0,267,37,1,0;            67P     45
508,4,0,267,2,1,0,0,267,53,1,0,0,267,15,1,0,0,267,54,0,0;             69P     46
508,4,0,267,3,1,0,0,267,54,1,0,0,267,14,1,0,0,267,28,0,0;             71P     47
508,4,0,267,1,1,0,0,267,51,0,0,0,267,16,1,0,0,267,53,0,0;             73P     48
508,4,0,267,11,0,0,0,267,55,1,0,0,267,21,0,0,0,267,36,0,0;            75P     49
508,4,0,267,41,0,0,0,267,52,0,0,0,267,18,0,0,0,267,50,0,0;            77P     50
508,6,0,267,10,1,0,0,267,56,1,0,0,267,44,1,0,0,267,57,1,0,0,267,      79P     51
22,1,0,0,267,55,0,0;                                                  79P     52
508,4,0,267,42,1,0,0,267,58,1,0,0,267,24,1,0,0,267,59,1,0;            81P     53
508,4,0,267,48,1,0,0,267,60,1,0,0,267,26,1,0,0,267,61,1,0;            83P     54
508,4,0,267,46,1,0,0,267,62,1,0,0,267,8,1,0,0,267,63,1,0;             85P     55
508,4,0,267,45,0,0,0,267,56,0,0,0,267,9,0,0,0,267,62,0,0;             87P     56
508,4,0,267,47,0,0,0,267,63,0,0,0,267,27,0,0,0,267,60,0,0;            89P     57
508,4,0,267,49,0,0,0,267,61,0,0,0,267,25,0,0,0,267,58,0,0;            91P     58
508,4,0,267,43,0,0,0,267,59,0,0,0,267,23,0,0,0,267,57,0,0;            93P     59
126,1,1,0,0,1,0,-1.,-1.,0.,0.,1.,1.,-6.9,0.472500000000002,           95P     60
2.286,-6.9,-2.0275,2.286,-1.,0.,0.,0.,0.;                             95P     61
126,2,2,0,0,0,0,-1.5707963267949,-1.5707963267949,                    97P     62
-1.5707963267949,0.,0.,0.,1.,0.707106781186549,1.,-4.245,3.1275,      97P     63
2.286,-6.9,3.1275,2.286,-6.9,0.472500000000002,2.286,                 97P     64
-1.5707963267949,0.,0.,0.,0.;                                         97P     65
126,1,1,0,0,1,0,-1.,-1.,0.,0.,1.,1.,8.,3.1275,2.286,-4.245,           99P     66
3.1275,2.286,-1.,0.,0.,0.,0.;                                         99P     67
126,1,1,0,0,1,0,0.,0.,1.,1.,1.,1.,8.,3.1275,2.286,8.,4.1275,         101P     68
2.286,0.,1.,0.,0.,0.;                                                101P     69
126,1,1,0,0,1,0,0.,0.,1.,1.,1.,1.,8.,4.1275,2.286,-8.,4.1275,        103P     70
2.286,0.,1.,0.,0.,0.;                                                103P     71
126,1,1,0,0,1,0,0.,0.,1.,1.,1.,1.,-8.,4.1275,2.286,-8.,-2.0275,      105P     72
2.286,0.,1.,0.,0.,0.;                                                105P     73
126,1,1,0,0,1,0,0.,0.,1.,1.,1.,1.,-6.9,-2.0275,2.286,-8.,            107P     74
-2.0275,2.286,0.,1.,0.,0.,0.;                                        107P     75
126,1,1,0,0,1,0,0.,0.,1.,1.,1.,1.,5.75,-0.972499999999999,2.286,     109P     76
5.75,-0.672499999999999,2.286,0.,1.,0.,0.,0.;                        109P     77
126,2,2,0,0,0,0,3.14159265358979,3.14159265358979,                   111P     78
3.14159265358979,4.71238898038469,4.71238898038469,                  111P     79
4.71238898038469,1.,0.707106781186546,1.,5.75,                       111P     80
-0.972499999999999,2.286,5.75,-1.9725,2.286,4.75,-1.9725,2.286,      111P     81
3.14159265358979,4.71238898038469,0.,0.,0.;                          111P     82
126,1,1,0,0,1,0,1.48730422161091D-15,1.48730422161091D-15,1.,1.,     113P     83
1.,1.,3.6303,-1.9725,2.286,4.75,-1.9725,2.286,                       113P     84
1.48730422161091D-15,1.,0.,0.,0.;                                    113P     85
126,1,1,0,0,1,0,0.,0.,1.,1.,1.,1.,3.6303,-1.9725,2.286,3.6303,       115P     86
-4.1275,2.286,0.,1.,0.,0.,0.;                                        115P     87
126,1,1,0,0,1,0,1.27036527064233D-16,1.27036527064233D-16,1.,1.,     117P     88
1.,1.,3.6303,-4.1275,2.286,8.,-4.1275,2.286,                         117P     89
1.27036527064233D-16,1.,0.,0.,0.;                                    117P     90
126,1,1,0,0,1,0,0.,0.,1.,1.,1.,1.,8.,-4.1275,2.286,8.,1.1275,        119P     91
2.286,0.,1.,0.,0.,0.;                                                119P     92
126,1,1,0,0,1,0,0.,0.,1.,1.,1.,1.,-4.245,1.1275,2.286,8.,1.1275,     121P     93
2.286,0.,1.,0.,0.,0.;                                                121P     94
126,2,2,0,0,0,0,-3.14159265358979,-3.14159265358979,                 123P     95
-3.14159265358979,-1.5707963267949,-1.5707963267949,                 123P     96
-1.5707963267949,1.,0.707106781186549,1.,-4.9,0.472500000000002,     123P     97
2.286,-4.9,1.1275,2.286,-4.245,1.1275,2.286,-3.14159265358979,       123P     98
-1.5707963267949,0.,0.,0.;                                           123P     99
126,1,1,0,0,1,0,0.,0.,1.,1.,1.,1.,-4.9,-2.0275,2.286,-4.9,           125P    100
0.472500000000002,2.286,0.,1.,0.,0.,0.;                              125P    101
126,1,1,0,0,1,0,-6.93889390390724D-16,-6.93889390390724D-16,1.,      127P    102
1.,1.,1.,-2.5,-2.0275,2.286,-4.9,-2.0275,2.286,                      127P    103
-6.93889390390724D-16,1.,0.,0.,0.;                                   127P    104
126,2,2,0,0,0,0,1.5707963267949,1.5707963267949,1.5707963267949,     129P    105
3.14159265358979,3.14159265358979,3.14159265358979,1.,               129P    106
0.707106781186547,1.,-2.5,-2.0275,2.286,-1.5,-2.0275,2.286,-1.5,     129P    107
-3.0275,2.286,1.5707963267949,3.14159265358979,0.,0.,0.;             129P    108
126,1,1,0,0,1,0,0.,0.,1.,1.,1.,1.,-1.5,-4.1275,2.286,-1.5,           131P    109
-3.0275,2.286,0.,1.,0.,0.,0.;                                        131P    110
126,1,1,0,0,1,0,0.,0.,1.,1.,1.,1.,-1.5,-4.1275,2.286,1.3697,         133P    111
-4.1275,2.286,0.,1.,0.,0.,0.;                                        133P    112
126,1,1,0,0,1,0,-1.,-1.,0.,0.,1.,1.,1.3697,-4.1275,2.286,1.3697,     135P    113
-1.9725,2.286,-1.,0.,0.,0.,0.;                                       135P    114
126,1,1,0,0,1,0,3.71826055402728D-16,3.71826055402728D-16,1.,1.,     137P    115
1.,1.,0.249999999999998,-1.9725,2.286,1.3697,-1.9725,2.286,          137P    116
3.71826055402728D-16,1.,0.,0.,0.;                                    137P    117
126,2,2,0,0,0,0,4.71238898038469,4.71238898038469,                   139P    118
4.71238898038469,6.28318530717959,6.28318530717959,                  139P    119
6.28318530717959,1.,0.707106781186548,1.,0.249999999999998,          139P    120
-1.9725,2.286,-0.750000000000002,-1.9725,2.286,                      139P    121
-0.750000000000002,-0.972499999999999,2.286,4.71238898038469,        139P    122
6.28318530717959,0.,0.,0.;                                           139P    123
126,1,1,0,0,1,0,0.,0.,1.,1.,1.,1.,-0.750000000000002,                141P    124
-0.672499999999999,2.286,-0.750000000000002,-0.972499999999999,      141P    125
2.286,0.,1.,0.,0.,0.;                                                141P    126
126,2,2,0,0,0,0,-1.38777878078145D-16,-1.38777878078145D-16,         143P    127
-1.38777878078145D-16,1.5707963267949,1.5707963267949,               143P    128
1.5707963267949,1.,0.707106781186548,1.,-0.750000000000002,          143P    129
-0.672499999999999,2.286,-0.750000000000002,0.327500000000001,       143P    130
2.286,0.249999999999998,0.327500000000001,2.286,                     143P    131
-1.38777878078145D-16,1.5707963267949,0.,0.,0.;                      143P    132
126,1,1,0,0,1,0,0.,0.,1.,1.,1.,1.,4.75,0.327500000000001,2.286,      145P    133
0.249999999999998,0.327500000000001,2.286,0.,1.,0.,0.,0.;            145P    134
126,2,2,0,0,0,0,1.5707963267949,1.5707963267949,1.5707963267949,     147P    135
3.14159265358979,3.14159265358979,3.14159265358979,1.,               147P    136
0.707106781186547,1.,4.75,0.327500000000001,2.286,5.75,              147P    137
0.327500000000001,2.286,5.75,-0.672499999999999,2.286,               147P    138
1.5707963267949,3.14159265358979,0.,0.,0.;                           147P    139
126,4,2,0,0,0,0,1.5707963267949,1.5707963267949,1.5707963267949,     149P    140
3.14159265358979,3.14159265358979,4.71238898038469,                  149P    141
4.71238898038469,4.71238898038469,1.,0.707106781186547,1.,           149P    142
0.707106781186547,1.,8.,3.1275,2.286,8.,3.1275,1.286,8.,2.1275,      149P    143
1.286,8.,1.1275,1.286,8.,1.1275,2.286,1.5707963267949,               149P    144
4.71238898038469,0.,0.,0.;                                           149P    145
126,1,1,0,0,1,0,0.,0.,1.,1.,1.,1.,8.,-4.1275,2.286,8.,-4.1275,       151P    146
0.,0.,1.,0.,0.,0.;                                                   151P    147
126,1,1,0,0,1,0,0.,0.,1.,1.,1.,1.,8.,-4.1275,0.,8.,4.1275,0.,0.,     153P    148
1.,0.,0.,0.;                                                         153P    149
126,1,1,0,0,1,0,0.,0.,1.,1.,1.,1.,8.,4.1275,2.286,8.,4.1275,0.,      155P    150
0.,1.,0.,0.,0.;                                                      155P    151
126,1,1,0,0,1,0,0.,0.,1.,1.,1.,1.,8.,4.1275,0.,-8.,4.1275,0.,0.,     157P    152
1.,0.,0.,0.;                                                         157P    153
126,1,1,0,0,1,0,0.,0.,1.,1.,1.,1.,-8.,4.1275,2.286,-8.,4.1275,       159P    154
0.,0.,1.,0.,0.,0.;                                                   159P    155
126,1,1,0,0,1,0,0.,0.,1.,1.,1.,1.,-8.,4.1275,0.,-8.,-2.0275,0.,      161P    156
0.,1.,0.,0.,0.;                                                      161P    157
126,1,1,0,0,1,0,0.,0.,1.,1.,1.,1.,-8.,-2.0275,0.,-8.,-2.0275,        163P    158
2.286,0.,1.,0.,0.,0.;                                                163P    159
126,4,2,0,0,0,0,1.5707963267949,1.5707963267949,1.5707963267949,     165P    160
3.14159265358979,3.14159265358979,4.71238898038469,                  165P    161
4.71238898038469,4.71238898038469,1.,0.707106781186548,1.,           165P    162
0.707106781186548,1.,3.6303,-4.1275,2.286,3.6303,-4.1275,1.1557,     165P    163
2.5,-4.1275,1.1557,1.3697,-4.1275,1.1557,1.3697,-4.1275,2.286,       165P    164
1.5707963267949,4.71238898038469,0.,0.,0.;                           165P    165
126,1,1,0,0,1,0,0.,0.,1.,1.,1.,1.,-1.5,-4.1275,0.,-1.5,-4.1275,      167P    166
2.286,0.,1.,0.,0.,0.;                                                167P    167
126,1,1,0,0,1,0,0.,0.,1.,1.,1.,1.,-1.5,-4.1275,0.,8.,-4.1275,0.,     169P    168
0.,1.,0.,0.,0.;                                                      169P    169
126,1,1,0,0,1,0,0.,0.,1.,1.,1.,1.,-8.,-2.0275,0.,-2.5,-2.0275,       171P    170
0.,0.,1.,0.,0.,0.;                                                   171P    171
126,1,1,0,0,1,0,0.,0.,1.,1.,1.,1.,-1.5,-3.0275,0.,-1.5,-4.1275,      173P    172
0.,0.,1.,0.,0.,0.;                                                   173P    173
126,2,2,0,0,0,0,-3.14159265358979,-3.14159265358979,                 175P    174
-3.14159265358979,-1.5707963267949,-1.5707963267949,                 175P    175
-1.5707963267949,1.,0.707106781186548,1.,-1.5,-3.0275,0.,-1.5,       175P    176
-2.0275,0.,-2.5,-2.0275,0.,-3.14159265358979,-1.5707963267949,       175P    177
0.,0.,0.;                                                            175P    178
126,1,1,0,0,1,0,0.,0.,1.,1.,1.,1.,-0.750000000000002,                177P    179
-0.972499999999999,0.,-0.750000000000002,-0.672499999999999,0.,      177P    180
0.,1.,0.,0.,0.;                                                      177P    181
126,2,2,0,0,0,0,-6.28318530717959,-6.28318530717959,                 179P    182
-6.28318530717959,-4.71238898038469,-4.71238898038469,               179P    183
-4.71238898038469,1.,0.707106781186548,1.,-0.750000000000002,        179P    184
-0.972499999999999,0.,-0.750000000000002,-1.9725,0.,                 179P    185
0.249999999999998,-1.9725,0.,-6.28318530717959,                      179P    186
-4.71238898038469,0.,0.,0.;                                          179P    187
126,1,1,0,0,1,0,0.,0.,1.,1.,1.,1.,4.75,-1.9725,0.,                   181P    188
0.249999999999999,-1.9725,0.,0.,1.,0.,0.,0.;                         181P    189
126,2,2,0,0,0,0,-4.71238898038469,-4.71238898038469,                 183P    190
-4.71238898038469,-3.14159265358979,-3.14159265358979,               183P    191
-3.14159265358979,1.,0.707106781186548,1.,4.75,-1.9725,0.,5.75,      183P    192
-1.9725,0.,5.75,-0.972499999999999,0.,-4.71238898038469,             183P    193
-3.14159265358979,0.,0.,0.;                                          183P    194
126,1,1,0,0,1,0,0.,0.,1.,1.,1.,1.,5.75,-0.672499999999999,0.,        185P    195
5.75,-0.972499999999999,0.,0.,1.,0.,0.,0.;                           185P    196
126,2,2,0,0,0,0,-3.14159265358979,-3.14159265358979,                 187P    197
-3.14159265358979,-1.5707963267949,-1.5707963267949,                 187P    198
-1.5707963267949,1.,0.707106781186547,1.,5.75,                       187P    199
-0.672499999999999,0.,5.75,0.327500000000001,0.,4.75,                187P    200
0.327500000000001,0.,-3.14159265358979,-1.5707963267949,0.,0.,       187P    201
0.;                                                                  187P    202
126,1,1,0,0,1,0,0.,0.,1.,1.,1.,1.,0.249999999999998,                 189P    203
0.327500000000001,0.,4.75,0.327500000000001,0.,0.,1.,0.,0.,0.;       189P    204
126,2,2,0,0,0,0,-1.5707963267949,-1.5707963267949,                   191P    205
-1.5707963267949,1.38777878078145D-16,1.38777878078145D-16,          191P    206
1.38777878078145D-16,1.,0.707106781186548,1.,0.249999999999998,      191P    207
0.327500000000001,0.,-0.750000000000002,0.327500000000001,0.,        191P    208
-0.750000000000002,-0.672499999999999,0.,-1.5707963267949,           191P    209
1.38777878078145D-16,0.,0.,0.;                                       191P    210
126,1,1,0,0,1,0,0.,0.,1.,1.,1.,1.,-2.5,-2.0275,0.,-2.5,-2.0275,      193P    211
2.286,0.,1.,0.,0.,0.;                                                193P    212
126,4,2,0,0,0,0,1.5707963267949,1.5707963267949,1.5707963267949,     195P    213
3.14159265358979,3.14159265358979,4.71238898038469,                  195P    214
4.71238898038469,4.71238898038469,1.,0.707106781186547,1.,           195P    215
0.707106781186547,1.,-4.9,-2.0275,2.286,-4.9,-2.0275,1.286,-5.9,     195P    216
-2.0275,1.286,-6.9,-2.0275,1.286,-6.9,-2.0275,2.286,                 195P    217
1.5707963267949,4.71238898038469,0.,0.,0.;                           195P    218
126,1,1,0,0,1,0,-1.,-1.,0.,0.,1.,1.,-1.5,-3.0275,2.286,-1.5,         197P    219
-3.0275,0.,-1.,0.,0.,0.,0.;                                          197P    220
126,4,2,0,0,0,0,4.71238898038469,4.71238898038469,                   199P    221
4.71238898038469,6.28318530717959,6.28318530717959,                  199P    222
7.85398163397448,7.85398163397448,7.85398163397448,1.,               199P    223
0.707106781186547,1.,0.707106781186547,1.,-6.9,                      199P    224
0.472500000000002,2.286,-6.9,0.472500000000002,1.286,-5.9,           199P    225
0.472500000000002,1.286,-4.9,0.472500000000002,1.286,-4.9,           199P    226
0.472500000000002,2.286,4.71238898038469,7.85398163397448,0.,0.,     199P    227
0.;                                                                  199P    228
126,4,2,0,0,0,0,4.71238898038469,4.71238898038469,                   201P    229
4.71238898038469,6.28318530717959,6.28318530717959,                  201P    230
7.85398163397448,7.85398163397448,7.85398163397448,1.,               201P    231
0.707106781186547,1.,0.707106781186548,1.,-4.245,3.1275,2.286,       201P    232
-4.245,3.1275,1.286,-4.245,2.1275,1.286,-4.245,1.1275,1.286,         201P    233
-4.245,1.1275,2.286,4.71238898038469,7.85398163397448,0.,0.,0.;      201P    234
126,4,2,0,0,0,0,-7.85398163397448,-7.85398163397448,                 203P    235
-7.85398163397448,-6.28318530717959,-6.28318530717959,               203P    236
-4.71238898038469,-4.71238898038469,-4.71238898038469,1.,            203P    237
0.707106781186548,1.,0.707106781186548,1.,3.6303,-1.9725,2.286,      203P    238
3.6303,-1.9725,1.1557,2.5,-1.9725,1.1557,1.3697,-1.9725,1.1557,      203P    239
1.3697,-1.9725,2.286,-7.85398163397448,-4.71238898038469,0.,0.,      203P    240
0.;                                                                  203P    241
126,1,1,0,0,1,0,-1.,-1.,0.,0.,1.,1.,4.75,-1.9725,2.286,4.75,         205P    242
-1.9725,0.,-1.,0.,0.,0.,0.;                                          205P    243
126,1,1,0,0,1,0,0.,0.,1.,1.,1.,1.,0.249999999999998,-1.9725,0.,      207P    244
0.249999999999998,-1.9725,2.286,0.,1.,0.,0.,0.;                      207P    245
126,1,1,0,0,1,0,0.,0.,1.,1.,1.,1.,-0.750000000000002,                209P    246
-0.672499999999999,0.,-0.750000000000002,-0.672499999999999,         209P    247
2.286,0.,1.,0.,0.,0.;                                                209P    248
126,1,1,0,0,1,0,-1.,-1.,0.,0.,1.,1.,-0.750000000000002,              211P    249
-0.972499999999999,2.286,-0.750000000000002,-0.972499999999999,      211P    250
0.,-1.,0.,0.,0.,0.;                                                  211P    251
126,1,1,0,0,1,0,0.,0.,1.,1.,1.,1.,4.75,0.327500000000001,0.,         213P    252
4.75,0.327500000000001,2.286,0.,1.,0.,0.,0.;                         213P    253
126,1,1,0,0,1,0,-1.,-1.,0.,0.,1.,1.,0.249999999999998,               215P    254
0.327500000000001,2.286,0.249999999999998,0.327500000000001,0.,      215P    255
-1.,0.,0.,0.,0.;                                                     215P    256
126,1,1,0,0,1,0,0.,0.,1.,1.,1.,1.,5.75,-0.972499999999999,0.,        217P    257
5.75,-0.972499999999999,2.286,0.,1.,0.,0.,0.;                        217P    258
126,1,1,0,0,1,0,-1.,-1.,0.,0.,1.,1.,5.75,-0.672499999999999,         219P    259
2.286,5.75,-0.672499999999999,0.,-1.,0.,0.,0.,0.;                    219P    260
128,1,1,1,1,0,0,1,0,0,-0.801,-0.801,0.801,0.801,-0.20375,            221P    261
-0.20375,0.41375,0.41375,1.,1.,1.,1.,-8.01,-2.0375,2.286,8.01,       221P    262
-2.0375,2.286,-8.01,4.1375,2.286,8.01,4.1375,2.286,-0.801,0.801,     221P    263
-0.20375,0.41375;                                                    221P    264
128,1,1,1,1,0,0,1,0,0,-0.801,-0.801,0.491,0.491,-0.41375,            223P    265
-0.41375,0.11375,0.11375,1.,1.,1.,1.,-4.91,-4.1375,2.286,8.01,       223P    266
-4.1375,2.286,-4.91,1.1375,2.286,8.01,1.1375,2.286,-0.801,0.491,     223P    267
-0.41375,0.11375;                                                    223P    268
128,1,1,1,1,0,0,1,0,0,-0.2296,-0.2296,0.001,0.001,-0.001,-0.001,     225P    269
0.8265,0.8265,1.,1.,1.,1.,8.,-4.1375,2.296,8.,-4.1375,-0.01,8.,      225P    270
4.1375,2.296,8.,4.1375,-0.01,-0.2296,0.001,-0.001,0.8265;            225P    271
128,1,1,1,1,0,0,1,0,0,-0.001,-0.001,0.2296,0.2296,                   227P    272
-0.00100000000000011,-0.00100000000000011,1.601,1.601,1.,1.,1.,      227P    273
1.,-8.01,4.1275,-0.01,-8.01,4.1275,2.296,8.01,4.1275,-0.01,8.01,     227P    274
4.1275,2.296,-0.001,0.2296,-0.00100000000000011,1.601;               227P    275
128,1,1,1,1,0,0,1,0,0,-0.001,-0.001,0.2296,0.2296,0.209,0.209,       229P    276
0.8265,0.8265,1.,1.,1.,1.,-8.,-2.0375,-0.01,-8.,-2.0375,2.296,       229P    277
-8.,4.1375,-0.01,-8.,4.1375,2.296,-0.001,0.2296,0.209,0.8265;        229P    278
128,1,1,1,1,0,0,1,0,0,-0.2296,-0.2296,0.001,0.001,0.649,0.649,       231P    279
1.601,1.601,1.,1.,1.,1.,-1.51,-4.1275,2.296,-1.51,-4.1275,-0.01,     231P    280
8.01,-4.1275,2.296,8.01,-4.1275,-0.01,-0.2296,0.001,0.649,1.601;     231P    281
128,1,1,1,1,0,0,1,0,0,-0.801,-0.801,0.801,0.801,-0.41375,            233P    282
-0.41375,0.41375,0.41375,1.,1.,1.,1.,8.01,-4.1375,0.,-8.01,          233P    283
-4.1375,0.,8.01,4.1375,0.,-8.01,4.1375,0.,-0.801,0.801,-0.41375,     233P    284
0.41375;                                                             233P    285
128,1,1,1,1,0,0,1,0,0,0.1704,0.1704,0.401,0.401,-0.001,-0.001,       235P    286
0.551,0.551,1.,1.,1.,1.,-8.01,-2.0275,2.296,-8.01,-2.0275,-0.01,     235P    287
-2.49,-2.0275,2.296,-2.49,-2.0275,-0.01,0.1704,0.401,-0.001,         235P    288
0.551;                                                               235P    289
128,1,1,1,1,0,0,1,0,0,-0.401,-0.401,-0.1704,-0.1704,-0.001,          237P    290
-0.001,0.111,0.111,1.,1.,1.,1.,-1.5,-4.1375,-0.01,-1.5,-4.1375,      237P    291
2.296,-1.5,-3.0175,-0.01,-1.5,-3.0175,2.296,-0.401,-0.1704,          237P    292
-0.001,0.111;                                                        237P    293
128,4,2,2,2,0,0,0,0,0,-2.77555756156289D-16,                         239P    294
-2.77555756156289D-16,-2.77555756156289D-16,1.5707963267949,         239P    295
1.5707963267949,3.14159265358979,3.14159265358979,                   239P    296
3.14159265358979,0.,0.,0.,1.5707963267949,1.5707963267949,           239P    297
1.5707963267949,1.,0.707106781186547,1.,0.707106781186546,1.,        239P    298
0.707106781186548,0.5,0.707106781186548,0.499999999999999,           239P    299
0.707106781186548,1.,0.707106781186547,1.,0.707106781186546,1.,      239P    300
-6.9,0.472500000000002,2.286,-6.9,0.472500000000002,1.286,-5.9,      239P    301
0.472500000000002,1.286,-4.9,0.472500000000002,1.286,-4.9,           239P    302
0.472500000000002,2.286,-6.9,3.1275,2.286,-6.9,3.1275,1.286,         239P    303
-5.9,2.1275,1.286,-4.9,1.1275,1.286,-4.9,1.1275,2.286,-4.245,        239P    304
3.1275,2.286,-4.245,3.1275,1.286,-4.245,2.1275,1.286,-4.245,         239P    305
1.1275,1.286,-4.245,1.1275,2.286,-2.77555756156289D-16,              239P    306
3.14159265358979,0.,1.5707963267949;                                 239P    307
128,1,4,1,2,0,0,0,0,0,0.,0.,12.245,12.245,-1.5707963267949,          241P    308
-1.5707963267949,-1.5707963267949,2.22044604925031D-16,              241P    309
2.22044604925031D-16,1.5707963267949,1.5707963267949,                241P    310
1.5707963267949,1.,1.,0.707106781186547,0.707106781186547,1.,1.,     241P    311
0.707106781186547,0.707106781186547,1.,1.,-4.245,1.1275,2.286,       241P    312
8.,1.1275,2.286,-4.245,1.1275,1.286,8.,1.1275,1.286,-4.245,          241P    313
2.1275,1.286,8.,2.1275,1.286,-4.245,3.1275,1.286,8.,3.1275,          241P    314
1.286,-4.245,3.1275,2.286,8.,3.1275,2.286,0.,12.245,                 241P    315
-1.5707963267949,1.5707963267949;                                    241P    316
128,1,4,1,2,0,0,0,0,0,1.,1.,3.5,3.5,-4.71238898038469,               243P    317
-4.71238898038469,-4.71238898038469,-3.14159265358979,               243P    318
-3.14159265358979,-1.5707963267949,-1.5707963267949,                 243P    319
-1.5707963267949,1.,1.,0.707106781186548,0.707106781186548,1.,       243P    320
1.,0.707106781186548,0.707106781186548,1.,1.,-4.9,-2.0275,2.286,     243P    321
-4.9,0.472500000000002,2.286,-4.9,-2.0275,1.286,-4.9,                243P    322
0.472500000000002,1.286,-5.9,-2.0275,1.286,-5.9,                     243P    323
0.472500000000002,1.286,-6.9,-2.0275,1.286,-6.9,                     243P    324
0.472500000000002,1.286,-6.9,-2.0275,2.286,-6.9,                     243P    325
0.472500000000002,2.286,1.,3.5,-4.71238898038469,                    243P    326
-1.5707963267949;                                                    243P    327
128,1,4,1,2,0,0,0,0,0,1.63231000619304,1.63231000619304,             245P    328
3.53888348226134,3.53888348226134,-1.5707963267949,                  245P    329
-1.5707963267949,-1.5707963267949,-2.22044604925031D-16,             245P    330
-2.22044604925031D-16,1.5707963267949,1.5707963267949,               245P    331
1.5707963267949,1.,1.,0.707106781186548,0.707106781186548,1.,1.,     245P    332
0.707106781186548,0.707106781186548,1.,1.,1.3697,-1.9725,2.286,      245P    333
1.3697,-4.1275,2.286,1.3697,-1.9725,1.1557,1.3697,-4.1275,           245P    334
1.1557,2.5,-1.9725,1.1557,2.5,-4.1275,1.1557,3.6303,-1.9725,         245P    335
1.1557,3.6303,-4.1275,1.1557,3.6303,-1.9725,2.286,3.6303,            245P    336
-4.1275,2.286,1.63231000619304,3.53888348226134,                     245P    337
-1.5707963267949,1.5707963267949;                                    245P    338
128,1,2,1,2,0,0,0,0,0,-4.,-4.,-1.714,-1.714,1.5707963267949,         247P    339
1.5707963267949,1.5707963267949,3.14159265358979,                    247P    340
3.14159265358979,3.14159265358979,1.,1.,0.707106781186547,           247P    341
0.707106781186547,1.,1.,-2.5,-2.0275,2.286,-2.5,-2.0275,0.,-1.5,     247P    342
-2.0275,2.286,-1.5,-2.0275,0.,-1.5,-3.0275,2.286,-1.5,-3.0275,       247P    343
0.,-4.,-1.714,1.5707963267949,3.14159265358979;                      247P    344
128,1,1,1,1,0,0,1,0,0,-0.401,-0.401,-0.1704,-0.1704,0.099,0.099,     249P    345
0.551,0.551,1.,1.,1.,1.,0.239999999999998,-1.9725,-0.01,             249P    346
0.239999999999998,-1.9725,2.296,4.76,-1.9725,-0.01,4.76,-1.9725,     249P    347
2.296,-0.401,-0.1704,0.099,0.551;                                    249P    348
128,1,1,1,1,0,0,1,0,0,0.1704,0.1704,0.401,0.401,-0.131,-0.131,       251P    349
-0.099,-0.099,1.,1.,1.,1.,-0.750000000000002,-0.982499999999999,     251P    350
2.296,-0.750000000000002,-0.982499999999999,-0.01,                   251P    351
-0.750000000000002,-0.662499999999999,2.296,-0.750000000000002,      251P    352
-0.662499999999999,-0.01,0.1704,0.401,-0.131,-0.099;                 251P    353
128,1,1,1,1,0,0,1,0,0,0.1704,0.1704,0.401,0.401,0.099,0.099,         253P    354
0.551,0.551,1.,1.,1.,1.,0.239999999999998,0.327500000000001,         253P    355
2.296,0.239999999999998,0.327500000000001,-0.01,4.76,                253P    356
0.327500000000001,2.296,4.76,0.327500000000001,-0.01,0.1704,         253P    357
0.401,0.099,0.551;                                                   253P    358
128,1,1,1,1,0,0,1,0,0,-0.401,-0.401,-0.1704,-0.1704,-0.131,          255P    359
-0.131,-0.099,-0.099,1.,1.,1.,1.,5.75,-0.982499999999999,-0.01,      255P    360
5.75,-0.982499999999999,2.296,5.75,-0.662499999999999,-0.01,         255P    361
5.75,-0.662499999999999,2.296,-0.401,-0.1704,-0.131,-0.099;          255P    362
128,1,2,1,2,0,0,0,0,0,-4.,-4.,-1.714,-1.714,-3.14159265358979,       257P    363
-3.14159265358979,-3.14159265358979,-1.5707963267949,                257P    364
-1.5707963267949,-1.5707963267949,1.,1.,0.707106781186547,           257P    365
0.707106781186547,1.,1.,5.75,-0.972499999999999,2.286,5.75,          257P    366
-0.972499999999999,0.,5.75,-1.9725,2.286,5.75,-1.9725,0.,4.75,       257P    367
-1.9725,2.286,4.75,-1.9725,0.,-4.,-1.714,-3.14159265358979,          257P    368
-1.5707963267949;                                                    257P    369
128,1,2,1,2,0,0,0,0,0,-4.,-4.,-1.714,-1.714,1.5707963267949,         259P    370
1.5707963267949,1.5707963267949,3.14159265358979,                    259P    371
3.14159265358979,3.14159265358979,1.,1.,0.707106781186548,           259P    372
0.707106781186548,1.,1.,4.75,0.327500000000001,2.286,4.75,           259P    373
0.327500000000001,0.,5.75,0.327500000000001,2.286,5.75,              259P    374
0.327500000000001,0.,5.75,-0.672499999999999,2.286,5.75,             259P    375
-0.672499999999999,0.,-4.,-1.714,1.5707963267949,                    259P    376
3.14159265358979;                                                    259P    377
128,1,2,1,2,0,0,0,0,0,-4.,-4.,-1.714,-1.714,                         261P    378
-1.38777878078145D-16,-1.38777878078145D-16,                         261P    379
-1.38777878078145D-16,1.5707963267949,1.5707963267949,               261P    380
1.5707963267949,1.,1.,0.707106781186547,0.707106781186547,1.,1.,     261P    381
-0.750000000000002,-0.672499999999999,2.286,-0.750000000000002,      261P    382
-0.672499999999999,0.,-0.750000000000002,0.327500000000001,          261P    383
2.286,-0.750000000000002,0.327500000000001,0.,0.249999999999998,     261P    384
0.327500000000001,2.286,0.249999999999998,0.327500000000001,0.,      261P    385
-4.,-1.714,-1.38777878078145D-16,1.5707963267949;                    261P    386
128,1,2,1,2,0,0,0,0,0,-4.,-4.,-1.714,-1.714,-1.5707963267949,        263P    387
-1.5707963267949,-1.5707963267949,-1.38777878078145D-16,             263P    388
-1.38777878078145D-16,-1.38777878078145D-16,1.,1.,                   263P    389
0.707106781186548,0.707106781186548,1.,1.,0.249999999999998,         263P    390
-1.9725,2.286,0.249999999999998,-1.9725,0.,-0.750000000000002,       263P    391
-1.9725,2.286,-0.750000000000002,-1.9725,0.,-0.750000000000002,      263P    392
-0.972499999999999,2.286,-0.750000000000002,-0.972499999999999,      263P    393
0.,-4.,-1.714,-1.5707963267949,-1.38777878078145D-16;                263P    394
502,42,-6.9,0.472500000000002,2.286,-6.9,-2.0275,2.286,-4.245,       265P    395
3.1275,2.286,8.,3.1275,2.286,8.,4.1275,2.286,-8.,4.1275,2.286,       265P    396
-8.,-2.0275,2.286,5.75,-0.972499999999999,2.286,5.75,                265P    397
-0.672499999999999,2.286,4.75,-1.9725,2.286,3.6303,-1.9725,          265P    398
2.286,3.6303,-4.1275,2.286,8.,-4.1275,2.286,8.,1.1275,2.286,         265P    399
-4.245,1.1275,2.286,-4.9,0.472500000000002,2.286,-4.9,-2.0275,       265P    400
2.286,-2.5,-2.0275,2.286,-1.5,-3.0275,2.286,-1.5,-4.1275,2.286,      265P    401
1.3697,-4.1275,2.286,1.3697,-1.9725,2.286,0.249999999999998,         265P    402
-1.9725,2.286,-0.750000000000002,-0.972499999999999,2.286,           265P    403
-0.750000000000002,-0.672499999999999,2.286,0.249999999999998,       265P    404
0.327500000000001,2.286,4.75,0.327500000000001,2.286,8.,-4.1275,     265P    405
0.,8.,4.1275,0.,-8.,4.1275,0.,-8.,-2.0275,0.,-1.5,-4.1275,0.,        265P    406
-2.5,-2.0275,0.,-1.5,-3.0275,0.,-0.750000000000002,                  265P    407
-0.972499999999999,0.,-0.750000000000002,-0.672499999999999,0.,      265P    408
0.249999999999998,-1.9725,0.,4.75,-1.9725,0.,5.75,                   265P    409
-0.972499999999999,0.,5.75,-0.672499999999999,0.,4.75,               265P    410
0.327500000000001,0.,0.249999999999998,0.327500000000001,0.;         265P    411
504,63,95,265,1,265,2,97,265,3,265,1,99,265,4,265,3,101,265,4,       267P    412
265,5,103,265,5,265,6,105,265,6,265,7,107,265,2,265,7,109,265,8,     267P    413
265,9,111,265,8,265,10,113,265,11,265,10,115,265,11,265,12,117,      267P    414
265,12,265,13,119,265,13,265,14,121,265,15,265,14,123,265,16,        267P    415
265,15,125,265,17,265,16,127,265,18,265,17,129,265,18,265,19,        267P    416
131,265,20,265,19,133,265,20,265,21,135,265,21,265,22,137,265,       267P    417
23,265,22,139,265,23,265,24,141,265,25,265,24,143,265,25,265,26,     267P    418
145,265,27,265,26,147,265,27,265,9,149,265,4,265,14,151,265,13,      267P    419
265,28,153,265,28,265,29,155,265,5,265,29,157,265,29,265,30,159,     267P    420
265,6,265,30,161,265,30,265,31,163,265,31,265,7,165,265,12,265,      267P    421
21,167,265,32,265,20,169,265,32,265,28,171,265,31,265,33,173,        267P    422
265,34,265,32,175,265,34,265,33,177,265,35,265,36,179,265,35,        267P    423
265,37,181,265,38,265,37,183,265,38,265,39,185,265,40,265,39,        267P    424
187,265,40,265,41,189,265,42,265,41,191,265,42,265,36,193,265,       267P    425
33,265,18,195,265,17,265,2,197,265,19,265,34,199,265,1,265,16,       267P    426
201,265,3,265,15,203,265,11,265,22,205,265,10,265,38,207,265,37,     267P    427
265,23,209,265,36,265,25,211,265,24,265,35,213,265,41,265,27,        267P    428
215,265,26,265,42,217,265,39,265,8,219,265,9,265,40;                 267P    429
406,1,5HBody1;                                                       269P    430
314,62.7450980392157,62.7450980392157,62.7450980392157,13HSteel      271P    431
- Satin;                                                             271P    432
S      1G      3D    272P    432                                        T      1
