                                                                        S      1
,,21HSDP3X pitot tube 2 v1,21HSDP3X pitot tube 2 v1,7Hunknown,7Hunknown,G      1
32,38,7,99,15,,1.,2,2HMM,1,0.08,15H20200925.111122,0.01,10000.,7HunknownG      2
,7Hunknown,11,0,15H20190206.201136;                                     G      3
     186       1                                                00000000D      1
     186            -271       1       0                               0D      2
     514       2                                                00010000D      3
     514                       2       1                               0D      4
     510       4                                                00010000D      5
     510            -271       1       1                               0D      6
     510       5                                                00010000D      7
     510            -271       1       1                               0D      8
     510       6                                                00010000D      9
     510            -271       1       1                               0D     10
     510       7                                                00010000D     11
     510            -271       1       1                               0D     12
     510       8                                                00010000D     13
     510            -271       1       1                               0D     14
     510       9                                                00010000D     15
     510            -271       1       1                               0D     16
     510      10                                                00010000D     17
     510            -271       1       1                               0D     18
     510      11                                                00010000D     19
     510            -271       1       1                               0D     20
     510      12                                                00010000D     21
     510            -271       1       1                               0D     22
     510      13                                                00010000D     23
     510            -271       1       1                               0D     24
     510      14                                                00010000D     25
     510            -271       1       1                               0D     26
     510      15                                                00010000D     27
     510            -271       1       1                               0D     28
     510      16                                                00010000D     29
     510            -271       1       1                               0D     30
     510      17                                                00010000D     31
     510            -271       1       1                               0D     32
     510      18                                                00010000D     33
     510            -271       1       1                               0D     34
     510      19                                                00010000D     35
     510            -271       1       1                               0D     36
     510      20                                                00010000D     37
     510            -271       1       1                               0D     38
     510      21                                                00010000D     39
     510            -271       1       1                               0D     40
     510      22                                                00010000D     41
     510            -271       1       1                               0D     42
     510      23                                                00010000D     43
     510            -271       1       1                               0D     44
     510      24                                                00010000D     45
     510            -271       1       1                               0D     46
     510      25                                                00010000D     47
     510            -271       1       1                               0D     48
     508      26                                                00010000D     49
     508                       2       1                               0D     50
     508      28                                                00010000D     51
     508                       5       1                               0D     52
     508      33                                                00010000D     53
     508                       2       1                               0D     54
     508      35                                                00010000D     55
     508                       1       1                               0D     56
     508      36                                                00010000D     57
     508                       1       1                               0D     58
     508      37                                                00010000D     59
     508                       2       1                               0D     60
     508      39                                                00010000D     61
     508                       2       1                               0D     62
     508      41                                                00010000D     63
     508                       2       1                               0D     64
     508      43                                                00010000D     65
     508                       2       1                               0D     66
     508      45                                                00010000D     67
     508                       1       1                               0D     68
     508      46                                                00010000D     69
     508                       1       1                               0D     70
     508      47                                                00010000D     71
     508                       1       1                               0D     72
     508      48                                                00010000D     73
     508                       1       1                               0D     74
     508      49                                                00010000D     75
     508                       1       1                               0D     76
     508      50                                                00010000D     77
     508                       1       1                               0D     78
     508      51                                                00010000D     79
     508                       2       1                               0D     80
     508      53                                                00010000D     81
     508                       1       1                               0D     82
     508      54                                                00010000D     83
     508                       1       1                               0D     84
     508      55                                                00010000D     85
     508                       1       1                               0D     86
     508      56                                                00010000D     87
     508                       1       1                               0D     88
     508      57                                                00010000D     89
     508                       1       1                               0D     90
     508      58                                                00010000D     91
     508                       1       1                               0D     92
     508      59                                                00010000D     93
     508                       1       1                               0D     94
     126      60                                                00010000D     95
     126       0               2       0                               0D     96
     126      62                                                00010000D     97
     126       0               2       0                               0D     98
     126      64                                                00010000D     99
     126       0               2       0                               0D    100
     126      66                                                00010000D    101
     126       0               2       0                               0D    102
     126      68                                                00010000D    103
     126       0               2       0                               0D    104
     126      70                                                00010000D    105
     126       0               2       0                               0D    106
     126      72                                                00010000D    107
     126       0               4       0                               0D    108
     126      76                                                00010000D    109
     126       0               3       0                               0D    110
     126      79                                                00010000D    111
     126       0               6       0                               0D    112
     126      85                                                00010000D    113
     126       0               2       0                               0D    114
     126      87                                                00010000D    115
     126       0               2       0                               0D    116
     126      89                                                00010000D    117
     126       0               2       0                               0D    118
     126      91                                                00010000D    119
     126       0               2       0                               0D    120
     126      93                                                00010000D    121
     126       0               4       0                               0D    122
     126      97                                                00010000D    123
     126       0               3       0                               0D    124
     126     100                                                00010000D    125
     126       0               2       0                               0D    126
     126     102                                                00010000D    127
     126       0               5       0                               0D    128
     126     107                                                00010000D    129
     126       0               2       0                               0D    130
     126     109                                                00010000D    131
     126       0               2       0                               0D    132
     126     111                                                00010000D    133
     126       0               2       0                               0D    134
     126     113                                                00010000D    135
     126       0               2       0                               0D    136
     126     115                                                00010000D    137
     126       0               2       0                               0D    138
     126     117                                                00010000D    139
     126       0               5       0                               0D    140
     126     122                                                00010000D    141
     126       0               2       0                               0D    142
     126     124                                                00010000D    143
     126       0               5       0                               0D    144
     126     129                                                00010000D    145
     126       0               2       0                               0D    146
     126     131                                                00010000D    147
     126       0               6       0                               0D    148
     126     137                                                00010000D    149
     126       0               6       0                               0D    150
     126     143                                                00010000D    151
     126       0               2       0                               0D    152
     126     145                                                00010000D    153
     126       0               2       0                               0D    154
     126     147                                                00010000D    155
     126       0               2       0                               0D    156
     126     149                                                00010000D    157
     126       0               2       0                               0D    158
     126     151                                                00010000D    159
     126       0               2       0                               0D    160
     126     153                                                00010000D    161
     126       0               2       0                               0D    162
     126     155                                                00010000D    163
     126       0               2       0                               0D    164
     126     157                                                00010000D    165
     126       0               2       0                               0D    166
     126     159                                                00010000D    167
     126       0               2       0                               0D    168
     126     161                                                00010000D    169
     126       0               6       0                               0D    170
     126     167                                                00010000D    171
     126       0               2       0                               0D    172
     126     169                                                00010000D    173
     126       0               5       0                               0D    174
     126     174                                                00010000D    175
     126       0               2       0                               0D    176
     126     176                                                00010000D    177
     126       0               2       0                               0D    178
     126     178                                                00010000D    179
     126       0               6       0                               0D    180
     126     184                                                00010000D    181
     126       0               3       0                               0D    182
     126     187                                                00010000D    183
     126       0               6       0                               0D    184
     126     193                                                00010000D    185
     126       0               2       0                               0D    186
     126     195                                                00010000D    187
     126       0               6       0                               0D    188
     126     201                                                00010000D    189
     126       0               2       0                               0D    190
     126     203                                                00010000D    191
     126       0               5       0                               0D    192
     126     208                                                00010000D    193
     126       0               6       0                               0D    194
     126     214                                                00010000D    195
     126       0               2       0                               0D    196
     126     216                                                00010000D    197
     126       0               2       0                               0D    198
     126     218                                                00010000D    199
     126       0               6       0                               0D    200
     126     224                                                00010000D    201
     126       0               8       0                               0D    202
     126     232                                                00010000D    203
     126       0               5       0                               0D    204
     126     237                                                00010000D    205
     126       0               2       0                               0D    206
     126     239                                                00010000D    207
     126       0               2       0                               0D    208
     126     241                                                00010000D    209
     126       0               3       0                               0D    210
     126     244                                                00010000D    211
     126       0               3       0                               0D    212
     126     247                                                00010000D    213
     126       0               2       0                               0D    214
     126     249                                                00010000D    215
     126       0               2       0                               0D    216
     126     251                                                00010000D    217
     126       0               3       0                               0D    218
     126     254                                                00010000D    219
     126       0               2       0                               0D    220
     128     256                                                00010000D    221
     128       0    -271       4       0                               0D    222
     128     260                                                00010000D    223
     128       0    -271       4       0                               0D    224
     128     264                                                00010000D    225
     128       0    -271       3       0                               0D    226
     128     267                                                00010000D    227
     128       0    -271       4       0                               0D    228
     128     271                                                00010000D    229
     128       0    -271       3       0                               0D    230
     128     274                                                00010000D    231
     128       0    -271       3       0                               0D    232
     128     277                                                00010000D    233
     128       0    -271       4       0                               0D    234
     128     281                                                00010000D    235
     128       0    -271       4       0                               0D    236
     128     285                                                00010000D    237
     128       0    -271       3       0                               0D    238
     128     288                                                00010000D    239
     128       0    -271      15       0                               0D    240
     128     303                                                00010000D    241
     128       0    -271       9       0                               0D    242
     128     312                                                00010000D    243
     128       0    -271      10       0                               0D    244
     128     322                                                00010000D    245
     128       0    -271      10       0                               0D    246
     128     332                                                00010000D    247
     128       0    -271       6       0                               0D    248
     128     338                                                00010000D    249
     128       0    -271       4       0                               0D    250
     128     342                                                00010000D    251
     128       0    -271       5       0                               0D    252
     128     347                                                00010000D    253
     128       0    -271       5       0                               0D    254
     128     352                                                00010000D    255
     128       0    -271       4       0                               0D    256
     128     356                                                00010000D    257
     128       0    -271       9       0                               0D    258
     128     365                                                00010000D    259
     128       0    -271       8       0                               0D    260
     128     373                                                00010000D    261
     128       0    -271       7       0                               0D    262
     128     380                                                00010000D    263
     128       0    -271       8       0                               0D    264
     502     388                                                00010000D    265
     502                      17       1                               0D    266
     504     405                                                00010001D    267
     504                      18       1                               0D    268
     406     423                                                00000000D    269
     406                       1      15                               0D    270
     314     424                                                00000200D    271
     314                       2       0                               0D    272
186,3,1,0,0,1,269;                                                     1P      1
514,22,5,1,7,1,9,1,11,1,13,1,15,1,17,1,19,1,21,1,23,1,25,1,27,1,       3P      2
29,1,31,1,33,1,35,1,37,1,39,1,41,1,43,1,45,1,47,1;                     3P      3
510,221,1,1,49;                                                        5P      4
510,223,1,1,51;                                                        7P      5
510,225,1,1,53;                                                        9P      6
510,227,1,1,55;                                                       11P      7
510,229,1,1,57;                                                       13P      8
510,231,1,1,59;                                                       15P      9
510,233,2,1,61,63;                                                    17P     10
510,235,1,1,65;                                                       19P     11
510,237,1,1,67;                                                       21P     12
510,239,1,1,69;                                                       23P     13
510,241,1,1,71;                                                       25P     14
510,243,1,1,73;                                                       27P     15
510,245,1,1,75;                                                       29P     16
510,247,1,1,77;                                                       31P     17
510,249,1,1,79;                                                       33P     18
510,251,1,1,81;                                                       35P     19
510,253,1,1,83;                                                       37P     20
510,255,1,1,85;                                                       39P     21
510,257,1,1,87;                                                       41P     22
510,259,1,1,89;                                                       43P     23
510,261,1,1,91;                                                       45P     24
510,263,1,1,93;                                                       47P     25
508,7,0,267,1,1,0,0,267,2,1,0,0,267,3,0,0,0,267,4,0,0,0,267,5,0,      49P     26
0,0,267,6,1,0,0,267,7,1,0;                                            49P     27
508,20,0,267,8,0,0,0,267,9,1,0,0,267,10,0,0,0,267,11,0,0,0,267,       51P     28
12,0,0,0,267,13,1,0,0,267,14,0,0,0,267,15,1,0,0,267,16,1,0,0,         51P     29
267,17,1,0,0,267,18,1,0,0,267,19,0,0,0,267,20,0,0,0,267,21,0,0,       51P     30
0,267,22,0,0,0,267,23,1,0,0,267,24,0,0,0,267,25,1,0,0,267,26,0,       51P     31
0,0,267,27,1,0;                                                       51P     32
508,6,0,267,28,0,0,0,267,5,1,0,0,267,29,1,0,0,267,30,0,0,0,267,       53P     33
31,0,0,0,267,19,1,0;                                                  53P     34
508,4,0,267,32,0,0,0,267,29,0,0,0,267,4,1,0,0,267,33,1,0;             55P     35
508,4,0,267,34,0,0,0,267,33,0,0,0,267,3,1,0,0,267,35,0,0;             57P     36
508,6,0,267,20,1,0,0,267,31,1,0,0,267,36,0,0,0,267,37,1,0,0,267,      59P     37
12,1,0,0,267,38,0,0;                                                  59P     38
508,7,0,267,39,1,0,0,267,40,0,0,0,267,41,1,0,0,267,36,1,0,0,267,      61P     39
30,1,0,0,267,32,1,0,0,267,34,1,0;                                     61P     40
508,8,0,267,42,1,0,0,267,43,1,0,0,267,44,1,0,0,267,45,1,0,0,267,      63P     41
46,1,0,0,267,47,1,0,0,267,48,1,0,0,267,49,1,0;                        63P     42
508,6,0,267,39,0,0,0,267,35,1,0,0,267,2,0,0,0,267,50,0,0,0,267,       65P     43
15,0,0,0,267,51,0,0;                                                  65P     44
508,4,0,267,13,0,0,0,267,37,0,0,0,267,41,0,0,0,267,52,0,0;            67P     45
508,4,0,267,7,0,0,0,267,53,1,0,0,267,17,0,0,0,267,54,0,0;             69P     46
508,4,0,267,6,0,0,0,267,28,1,0,0,267,18,0,0,0,267,53,0,0;             71P     47
508,4,0,267,1,0,0,0,267,54,1,0,0,267,16,0,0,0,267,50,1,0;             73P     48
508,4,0,267,11,1,0,0,267,55,1,0,0,267,21,1,0,0,267,38,1,0;            75P     49
508,4,0,267,40,1,0,0,267,51,1,0,0,267,14,1,0,0,267,52,1,0;            77P     50
508,6,0,267,10,1,0,0,267,56,1,0,0,267,42,0,0,0,267,57,1,0,0,267,      79P     51
22,1,0,0,267,55,0,0;                                                  79P     52
508,4,0,267,8,1,0,0,267,58,1,0,0,267,44,0,0,0,267,59,1,0;             81P     53
508,4,0,267,24,1,0,0,267,60,1,0,0,267,48,0,0,0,267,61,1,0;            83P     54
508,4,0,267,46,0,0,0,267,62,1,0,0,267,26,1,0,0,267,63,1,0;            85P     55
508,4,0,267,45,0,0,0,267,58,0,0,0,267,27,0,0,0,267,62,0,0;            87P     56
508,4,0,267,43,0,0,0,267,56,0,0,0,267,9,0,0,0,267,59,0,0;             89P     57
508,4,0,267,49,0,0,0,267,60,0,0,0,267,23,0,0,0,267,57,0,0;            91P     58
508,4,0,267,47,0,0,0,267,63,0,0,0,267,25,0,0,0,267,61,0,0;            93P     59
126,1,1,0,0,1,0,-1.,-1.,0.,0.,1.,1.,-6.9,0.472500000000002,           95P     60
1.714,-6.9,-2.0275,1.714,-1.,0.,0.,0.,0.;                             95P     61
126,1,1,0,0,1,0,0.,0.,1.,1.,1.,1.,-6.9,-2.0275,1.714,-8.,             97P     62
-2.0275,1.714,0.,1.,0.,0.,0.;                                         97P     63
126,1,1,0,0,1,0,0.,0.,1.,1.,1.,1.,-8.,4.1275,1.714,-8.,-2.0275,       99P     64
1.714,0.,1.,0.,0.,0.;                                                 99P     65
126,1,1,0,0,1,0,0.,0.,1.,1.,1.,1.,8.,4.1275,1.714,-8.,4.1275,        101P     66
1.714,0.,1.,0.,0.,0.;                                                101P     67
126,1,1,0,0,1,0,0.,0.,1.,1.,1.,1.,8.,3.1275,1.714,8.,4.1275,         103P     68
1.714,0.,1.,0.,0.,0.;                                                103P     69
126,1,1,0,0,1,0,-1.,-1.,0.,0.,1.,1.,8.,3.1275,1.714,-4.245,          105P     70
3.1275,1.714,-1.,0.,0.,0.,0.;                                        105P     71
126,2,2,0,0,0,0,-1.5707963267949,-1.5707963267949,                   107P     72
-1.5707963267949,0.,0.,0.,1.,0.707106781186549,1.,-4.245,3.1275,     107P     73
1.714,-6.9,3.1275,1.714,-6.9,0.472500000000002,1.714,                107P     74
-1.5707963267949,0.,0.,0.,0.;                                        107P     75
126,1,1,0,0,1,0,0.,0.,1.,1.,1.,1.,-0.750000000000002,                109P     76
-0.972499999999999,1.714,-0.750000000000002,-0.672499999999999,      109P     77
1.714,0.,1.,0.,0.,0.;                                                109P     78
126,2,2,0,0,0,0,3.14159265358979,3.14159265358979,                   111P     79
3.14159265358979,4.71238898038469,4.71238898038469,                  111P     80
4.71238898038469,1.,0.707106781186548,1.,-0.750000000000002,         111P     81
-0.972499999999999,1.714,-0.750000000000002,-1.9725,1.714,           111P     82
0.249999999999998,-1.9725,1.714,3.14159265358979,                    111P     83
4.71238898038469,0.,0.,0.;                                           111P     84
126,1,1,0,0,1,0,0.,0.,1.,1.,1.,1.,1.3697,-1.9725,1.714,              113P     85
0.249999999999998,-1.9725,1.714,0.,1.,0.,0.,0.;                      113P     86
126,1,1,0,0,1,0,-1.,-1.,0.,0.,1.,1.,1.3697,-4.1275,1.714,1.3697,     115P     87
-1.9725,1.714,-1.,0.,0.,0.,0.;                                       115P     88
126,1,1,0,0,1,0,0.,0.,1.,1.,1.,1.,-1.5,-4.1275,1.714,1.3697,         117P     89
-4.1275,1.714,0.,1.,0.,0.,0.;                                        117P     90
126,1,1,0,0,1,0,0.,0.,1.,1.,1.,1.,-1.5,-4.1275,1.714,-1.5,           119P     91
-3.0275,1.714,0.,1.,0.,0.,0.;                                        119P     92
126,2,2,0,0,0,0,1.5707963267949,1.5707963267949,1.5707963267949,     121P     93
3.14159265358979,3.14159265358979,3.14159265358979,1.,               121P     94
0.707106781186547,1.,-2.5,-2.0275,1.714,-1.5,-2.0275,1.714,-1.5,     121P     95
-3.0275,1.714,1.5707963267949,3.14159265358979,0.,0.,0.;             121P     96
126,1,1,0,0,1,0,-6.93889390390724D-16,-6.93889390390724D-16,1.,      123P     97
1.,1.,1.,-2.5,-2.0275,1.714,-4.9,-2.0275,1.714,                      123P     98
-6.93889390390724D-16,1.,0.,0.,0.;                                   123P     99
126,1,1,0,0,1,0,0.,0.,1.,1.,1.,1.,-4.9,-2.0275,1.714,-4.9,           125P    100
0.472500000000002,1.714,0.,1.,0.,0.,0.;                              125P    101
126,2,2,0,0,0,0,-3.14159265358979,-3.14159265358979,                 127P    102
-3.14159265358979,-1.5707963267949,-1.5707963267949,                 127P    103
-1.5707963267949,1.,0.707106781186549,1.,-4.9,0.472500000000002,     127P    104
1.714,-4.9,1.1275,1.714,-4.245,1.1275,1.714,-3.14159265358979,       127P    105
-1.5707963267949,0.,0.,0.;                                           127P    106
126,1,1,0,0,1,0,0.,0.,1.,1.,1.,1.,-4.245,1.1275,1.714,8.,1.1275,     129P    107
1.714,0.,1.,0.,0.,0.;                                                129P    108
126,1,1,0,0,1,0,0.,0.,1.,1.,1.,1.,8.,-4.1275,1.714,8.,1.1275,        131P    109
1.714,0.,1.,0.,0.,0.;                                                131P    110
126,1,1,0,0,1,0,0.,0.,1.,1.,1.,1.,3.6303,-4.1275,1.714,8.,           133P    111
-4.1275,1.714,0.,1.,0.,0.,0.;                                        133P    112
126,1,1,0,0,1,0,0.,0.,1.,1.,1.,1.,3.6303,-1.9725,1.714,3.6303,       135P    113
-4.1275,1.714,0.,1.,0.,0.,0.;                                        135P    114
126,1,1,0,0,1,0,0.,0.,1.,1.,1.,1.,4.75,-1.9725,1.714,3.6303,         137P    115
-1.9725,1.714,0.,1.,0.,0.,0.;                                        137P    116
126,2,2,0,0,0,0,4.71238898038469,4.71238898038469,                   139P    117
4.71238898038469,6.28318530717959,6.28318530717959,                  139P    118
6.28318530717959,1.,0.707106781186547,1.,4.75,-1.9725,1.714,         139P    119
5.75,-1.9725,1.714,5.75,-0.9725,1.714,4.71238898038469,              139P    120
6.28318530717959,0.,0.,0.;                                           139P    121
126,1,1,0,0,1,0,0.,0.,1.,1.,1.,1.,5.75,-0.672499999999999,1.714,     141P    122
5.75,-0.972499999999999,1.714,0.,1.,0.,0.,0.;                        141P    123
126,2,2,0,0,0,0,4.16333634234434D-16,4.16333634234434D-16,           143P    124
4.16333634234434D-16,1.5707963267949,1.5707963267949,                143P    125
1.5707963267949,1.,0.707106781186545,1.,5.75,-0.672499999999999,     143P    126
1.714,5.75,0.327500000000001,1.714,4.75,0.327500000000001,1.714,     143P    127
4.16333634234434D-16,1.5707963267949,0.,0.,0.;                       143P    128
126,1,1,0,0,1,0,0.,0.,1.,1.,1.,1.,0.249999999999998,                 145P    129
0.327500000000001,1.714,4.75,0.3275,1.714,0.,1.,0.,0.,0.;            145P    130
126,2,2,0,0,0,0,1.5707963267949,1.5707963267949,1.5707963267949,     147P    131
3.14159265358979,3.14159265358979,3.14159265358979,1.,               147P    132
0.707106781186548,1.,0.249999999999998,0.327500000000001,1.714,      147P    133
-0.750000000000002,0.327500000000001,1.714,-0.750000000000002,       147P    134
-0.672499999999999,1.714,1.5707963267949,3.14159265358979,0.,0.,     147P    135
0.;                                                                  147P    136
126,4,2,0,0,0,0,1.5707963267949,1.5707963267949,1.5707963267949,     149P    137
3.14159265358979,3.14159265358979,4.71238898038469,                  149P    138
4.71238898038469,4.71238898038469,1.,0.707106781186547,1.,           149P    139
0.707106781186548,1.,8.,3.1275,1.714,8.,3.1275,2.714,8.,2.1275,      149P    140
2.714,8.,1.1275,2.714,8.,1.1275,1.714,1.5707963267949,               149P    141
4.71238898038469,0.,0.,0.;                                           149P    142
126,1,1,0,0,1,0,0.,0.,1.,1.,1.,1.,8.,4.1275,1.714,8.,4.1275,4.,      151P    143
0.,1.,0.,0.,0.;                                                      151P    144
126,1,1,0,0,1,0,0.,0.,1.,1.,1.,1.,8.,-4.1275,4.,8.,4.1275,4.,0.,     153P    145
1.,0.,0.,0.;                                                         153P    146
126,1,1,0,0,1,0,0.,0.,1.,1.,1.,1.,8.,-4.1275,1.714,8.,-4.1275,       155P    147
4.,0.,1.,0.,0.,0.;                                                   155P    148
126,1,1,0,0,1,0,0.,0.,1.,1.,1.,1.,8.,4.1275,4.,-8.,4.1275,4.,0.,     157P    149
1.,0.,0.,0.;                                                         157P    150
126,1,1,0,0,1,0,0.,0.,1.,1.,1.,1.,-8.,4.1275,1.714,-8.,4.1275,       159P    151
4.,0.,1.,0.,0.,0.;                                                   159P    152
126,1,1,0,0,1,0,0.,0.,1.,1.,1.,1.,-8.,4.1275,4.,-8.,-2.0275,4.,      161P    153
0.,1.,0.,0.,0.;                                                      161P    154
126,1,1,0,0,1,0,0.,0.,1.,1.,1.,1.,-8.,-2.0275,4.,-8.,-2.0275,        163P    155
1.714,0.,1.,0.,0.,0.;                                                163P    156
126,1,1,0,0,1,0,0.,0.,1.,1.,1.,1.,-1.5,-4.1275,4.,8.,-4.1275,4.,     165P    157
0.,1.,0.,0.,0.;                                                      165P    158
126,1,1,0,0,1,0,0.,0.,1.,1.,1.,1.,-1.5,-4.1275,4.,-1.5,-4.1275,      167P    159
1.714,0.,1.,0.,0.,0.;                                                167P    160
126,4,2,0,0,0,0,1.5707963267949,1.5707963267949,1.5707963267949,     169P    161
3.14159265358979,3.14159265358979,4.71238898038469,                  169P    162
4.71238898038469,4.71238898038469,1.,0.707106781186547,1.,           169P    163
0.707106781186548,1.,3.6303,-4.1275,1.714,3.6303,-4.1275,2.8443,     169P    164
2.5,-4.1275,2.8443,1.3697,-4.1275,2.8443,1.3697,-4.1275,1.714,       169P    165
1.5707963267949,4.71238898038469,0.,0.,0.;                           169P    166
126,1,1,0,0,1,0,0.,0.,1.,1.,1.,1.,-8.,-2.0275,4.,-2.5,-2.0275,       171P    167
4.,0.,1.,0.,0.,0.;                                                   171P    168
126,2,2,0,0,0,0,-3.14159265358979,-3.14159265358979,                 173P    169
-3.14159265358979,-1.5707963267949,-1.5707963267949,                 173P    170
-1.5707963267949,1.,0.707106781186548,1.,-1.5,-3.0275,4.,-1.5,       173P    171
-2.0275,4.,-2.5,-2.0275,4.,-3.14159265358979,-1.5707963267949,       173P    172
0.,0.,0.;                                                            173P    173
126,1,1,0,0,1,0,0.,0.,1.,1.,1.,1.,-1.5,-3.0275,4.,-1.5,-4.1275,      175P    174
4.,0.,1.,0.,0.,0.;                                                   175P    175
126,1,1,0,0,1,0,0.,0.,1.,1.,1.,1.,4.75,-1.9725,4.,                   177P    176
0.249999999999998,-1.9725,4.,0.,1.,0.,0.,0.;                         177P    177
126,2,2,0,0,0,0,-4.71238898038469,-4.71238898038469,                 179P    178
-4.71238898038469,-3.14159265358979,-3.14159265358979,               179P    179
-3.14159265358979,1.,0.707106781186548,1.,0.249999999999998,         179P    180
-1.9725,4.,-0.750000000000002,-1.9725,4.,-0.750000000000002,         179P    181
-0.972499999999999,4.,-4.71238898038469,-3.14159265358979,0.,0.,     179P    182
0.;                                                                  179P    183
126,1,1,0,0,1,0,0.,0.,1.,1.,1.,1.,-0.750000000000002,                181P    184
-0.972499999999999,4.,-0.750000000000002,-0.672499999999999,4.,      181P    185
0.,1.,0.,0.,0.;                                                      181P    186
126,2,2,0,0,0,0,-3.14159265358979,-3.14159265358979,                 183P    187
-3.14159265358979,-1.5707963267949,-1.5707963267949,                 183P    188
-1.5707963267949,1.,0.707106781186548,1.,-0.750000000000002,         183P    189
-0.672499999999999,4.,-0.750000000000002,0.327500000000001,4.,       183P    190
0.249999999999998,0.327500000000001,4.,-3.14159265358979,            183P    191
-1.5707963267949,0.,0.,0.;                                           183P    192
126,1,1,0,0,1,0,0.,0.,1.,1.,1.,1.,0.249999999999998,                 185P    193
0.327500000000001,4.,4.75,0.3275,4.,0.,1.,0.,0.,0.;                  185P    194
126,2,2,0,0,0,0,-1.5707963267949,-1.5707963267949,                   187P    195
-1.5707963267949,-4.16333634234434D-16,-4.16333634234434D-16,        187P    196
-4.16333634234434D-16,1.,0.707106781186545,1.,4.75,                  187P    197
0.327500000000001,4.,5.75,0.327500000000001,4.,5.75,                 187P    198
-0.672499999999999,4.,-1.5707963267949,-4.16333634234434D-16,0.,     187P    199
0.,0.;                                                               187P    200
126,1,1,0,0,1,0,0.,0.,1.,1.,1.,1.,5.75,-0.672499999999999,4.,        189P    201
5.75,-0.972499999999999,4.,0.,1.,0.,0.,0.;                           189P    202
126,2,2,0,0,0,0,-6.28318530717959,-6.28318530717959,                 191P    203
-6.28318530717959,-4.71238898038469,-4.71238898038469,               191P    204
-4.71238898038469,1.,0.707106781186547,1.,5.75,-0.9725,4.,5.75,      191P    205
-1.9725,4.,4.75,-1.9725,4.,-6.28318530717959,-4.71238898038469,      191P    206
0.,0.,0.;                                                            191P    207
126,4,2,0,0,0,0,1.5707963267949,1.5707963267949,1.5707963267949,     193P    208
3.14159265358979,3.14159265358979,4.71238898038469,                  193P    209
4.71238898038469,4.71238898038469,1.,0.707106781186547,1.,           193P    210
0.707106781186548,1.,-4.9,-2.0275,1.714,-4.9,-2.0275,2.714,-5.9,     193P    211
-2.0275,2.714,-6.9,-2.0275,2.714,-6.9,-2.0275,1.714,                 193P    212
1.5707963267949,4.71238898038469,0.,0.,0.;                           193P    213
126,1,1,0,0,1,0,0.,0.,1.,1.,1.,1.,-2.5,-2.0275,4.,-2.5,-2.0275,      195P    214
1.714,0.,1.,0.,0.,0.;                                                195P    215
126,1,1,0,0,1,0,-1.,-1.,0.,0.,1.,1.,-1.5,-3.0275,1.714,-1.5,         197P    216
-3.0275,4.,-1.,0.,0.,0.,0.;                                          197P    217
126,4,2,0,0,0,0,4.71238898038469,4.71238898038469,                   199P    218
4.71238898038469,6.28318530717959,6.28318530717959,                  199P    219
7.85398163397448,7.85398163397448,7.85398163397448,1.,               199P    220
0.707106781186547,1.,0.707106781186549,1.,-4.245,3.1275,1.714,       199P    221
-4.245,3.1275,2.714,-4.245,2.1275,2.714,-4.245,1.1275,2.714,         199P    222
-4.245,1.1275,1.714,4.71238898038469,7.85398163397448,0.,0.,0.;      199P    223
126,4,2,0,0,0,0,4.71238898038469,4.71238898038469,                   201P    224
4.71238898038469,6.28318530717959,6.28318530717959,                  201P    225
7.85398163397448,7.85398163397448,7.85398163397448,1.,               201P    226
0.707106781186548,1.,0.707106781186548,1.,-6.9,                      201P    227
0.472500000000002,1.714,-6.9,0.472500000000002,2.714,-5.9,           201P    228
0.472500000000002,2.714,-4.9,0.472500000000002,2.714,-4.9,           201P    229
0.472500000000002,1.714,4.71238898038469,7.85398163397448,0.,0.,     201P    230
0.;                                                                  201P    231
126,4,2,0,0,0,0,-3.14159265358979,-3.14159265358979,                 203P    232
-3.14159265358979,-1.5707963267949,-1.5707963267949,0.,0.,0.,1.,     203P    233
0.707106781186549,1.,0.707106781186549,1.,1.3697,-1.9725,1.714,      203P    234
1.3697,-1.9725,2.8443,2.5,-1.9725,2.8443,3.6303,-1.9725,2.8443,      203P    235
3.6303,-1.9725,1.714,-3.14159265358979,0.,0.,0.,0.;                  203P    236
126,1,1,0,0,1,0,-1.,-1.,0.,0.,1.,1.,0.249999999999998,-1.9725,       205P    237
1.714,0.249999999999998,-1.9725,4.,-1.,0.,0.,0.,0.;                  205P    238
126,1,1,0,0,1,0,0.,0.,1.,1.,1.,1.,4.75,-1.9725,4.,4.75,-1.9725,      207P    239
1.714,0.,1.,0.,0.,0.;                                                207P    240
126,1,1,0,0,1,0,-1.,-1.,0.,0.,1.,1.,-0.750000000000002,              209P    241
-0.672499999999999,1.714,-0.750000000000002,-0.672499999999999,      209P    242
4.,-1.,0.,0.,0.,0.;                                                  209P    243
126,1,1,0,0,1,0,0.,0.,1.,1.,1.,1.,-0.750000000000002,                211P    244
-0.972499999999999,4.,-0.750000000000002,-0.972499999999999,         211P    245
1.714,0.,1.,0.,0.,0.;                                                211P    246
126,1,1,0,0,1,0,-1.,-1.,0.,0.,1.,1.,5.75,-0.972499999999999,         213P    247
1.714,5.75,-0.972499999999999,4.,-1.,0.,0.,0.,0.;                    213P    248
126,1,1,0,0,1,0,0.,0.,1.,1.,1.,1.,5.75,-0.672499999999999,4.,        215P    249
5.75,-0.672499999999999,1.714,0.,1.,0.,0.,0.;                        215P    250
126,1,1,0,0,1,0,0.,0.,1.,1.,1.,1.,0.249999999999998,                 217P    251
0.327500000000001,4.,0.249999999999998,0.327500000000001,1.714,      217P    252
0.,1.,0.,0.,0.;                                                      217P    253
126,1,1,0,0,1,0,-1.,-1.,0.,0.,1.,1.,4.75,0.3275,1.714,4.75,          219P    254
0.3275,4.,-1.,0.,0.,0.,0.;                                           219P    255
128,1,1,1,1,0,0,1,0,0,-0.801,-0.801,0.801,0.801,-0.20375,            221P    256
-0.20375,0.41375,0.41375,1.,1.,1.,1.,8.01,-2.0375,1.714,-8.01,       221P    257
-2.0375,1.714,8.01,4.1375,1.714,-8.01,4.1375,1.714,-0.801,0.801,     221P    258
-0.20375,0.41375;                                                    221P    259
128,1,1,1,1,0,0,1,0,0,-0.491,-0.491,0.801,0.801,-0.41375,            223P    260
-0.41375,0.11375,0.11375,1.,1.,1.,1.,8.01,-4.1375,1.714,-4.91,       223P    261
-4.1375,1.714,8.01,1.1375,1.714,-4.91,1.1375,1.714,-0.491,0.801,     223P    262
-0.41375,0.11375;                                                    223P    263
128,1,1,1,1,0,0,1,0,0,-0.001,-0.001,0.2296,0.2296,-0.001,-0.001,     225P    264
0.8265,0.8265,1.,1.,1.,1.,8.,-4.1375,4.01,8.,-4.1375,1.704,8.,       225P    265
4.1375,4.01,8.,4.1375,1.704,-0.001,0.2296,-0.001,0.8265;             225P    266
128,1,1,1,1,0,0,1,0,0,-0.2296,-0.2296,0.001,0.001,                   227P    267
-0.00100000000000011,-0.00100000000000011,1.601,1.601,1.,1.,1.,      227P    268
1.,-8.01,4.1275,1.704,-8.01,4.1275,4.01,8.01,4.1275,1.704,8.01,      227P    269
4.1275,4.01,-0.2296,0.001,-0.00100000000000011,1.601;                227P    270
128,1,1,1,1,0,0,1,0,0,-0.2296,-0.2296,0.001,0.001,0.209,0.209,       229P    271
0.8265,0.8265,1.,1.,1.,1.,-8.,-2.0375,1.704,-8.,-2.0375,4.01,        229P    272
-8.,4.1375,1.704,-8.,4.1375,4.01,-0.2296,0.001,0.209,0.8265;         229P    273
128,1,1,1,1,0,0,1,0,0,-0.001,-0.001,0.2296,0.2296,0.649,0.649,       231P    274
1.601,1.601,1.,1.,1.,1.,-1.51,-4.1275,4.01,-1.51,-4.1275,1.704,      231P    275
8.01,-4.1275,4.01,8.01,-4.1275,1.704,-0.001,0.2296,0.649,1.601;      231P    276
128,1,1,1,1,0,0,1,0,0,-0.801,-0.801,0.801,0.801,-0.41375,            233P    277
-0.41375,0.41375,0.41375,1.,1.,1.,1.,-8.01,-4.1375,4.,8.01,          233P    278
-4.1375,4.,-8.01,4.1375,4.,8.01,4.1375,4.,-0.801,0.801,-0.41375,     233P    279
0.41375;                                                             233P    280
128,1,1,1,1,0,0,1,0,0,-0.401,-0.401,-0.1704,-0.1704,-0.001,          235P    281
-0.001,0.551,0.551,1.,1.,1.,1.,-8.01,-2.0275,4.01,-8.01,-2.0275,     235P    282
1.704,-2.49,-2.0275,4.01,-2.49,-2.0275,1.704,-0.401,-0.1704,         235P    283
-0.001,0.551;                                                        235P    284
128,1,1,1,1,0,0,1,0,0,0.1704,0.1704,0.401,0.401,-0.001,-0.001,       237P    285
0.111,0.111,1.,1.,1.,1.,-1.5,-4.1375,1.704,-1.5,-4.1375,4.01,        237P    286
-1.5,-3.0175,1.704,-1.5,-3.0175,4.01,0.1704,0.401,-0.001,0.111;      237P    287
128,4,2,2,2,0,0,0,0,0,-2.77555756156289D-16,                         239P    288
-2.77555756156289D-16,-2.77555756156289D-16,1.5707963267949,         239P    289
1.5707963267949,3.14159265358979,3.14159265358979,                   239P    290
3.14159265358979,1.5707963267949,1.5707963267949,                    239P    291
1.5707963267949,3.14159265358979,3.14159265358979,                   239P    292
3.14159265358979,1.,0.707106781186548,1.,0.707106781186549,1.,       239P    293
0.707106781186548,0.5,0.707106781186548,0.500000000000001,           239P    294
0.707106781186548,1.,0.707106781186548,1.,0.707106781186549,1.,      239P    295
-4.245,3.1275,1.714,-4.245,3.1275,2.714,-4.245,2.1275,2.714,         239P    296
-4.245,1.1275,2.714,-4.245,1.1275,1.714,-6.9,3.1275,1.714,-6.9,      239P    297
3.1275,2.714,-5.9,2.1275,2.714,-4.9,1.1275,2.714,-4.9,1.1275,        239P    298
1.714,-6.9,0.472500000000002,1.714,-6.9,0.472500000000002,2.714,     239P    299
-5.9,0.472500000000002,2.714,-4.9,0.472500000000002,2.714,-4.9,      239P    300
0.472500000000002,1.714,-2.77555756156289D-16,3.14159265358979,      239P    301
1.5707963267949,3.14159265358979;                                    239P    302
128,1,4,1,2,0,0,0,0,0,0.,0.,12.245,12.245,-1.5707963267949,          241P    303
-1.5707963267949,-1.5707963267949,-2.22044604925031D-16,             241P    304
-2.22044604925031D-16,1.5707963267949,1.5707963267949,               241P    305
1.5707963267949,1.,1.,0.707106781186547,0.707106781186547,1.,1.,     241P    306
0.707106781186547,0.707106781186547,1.,1.,-4.245,3.1275,1.714,       241P    307
8.,3.1275,1.714,-4.245,3.1275,2.714,8.,3.1275,2.714,-4.245,          241P    308
2.1275,2.714,8.,2.1275,2.714,-4.245,1.1275,2.714,8.,1.1275,          241P    309
2.714,-4.245,1.1275,1.714,8.,1.1275,1.714,0.,12.245,                 241P    310
-1.5707963267949,1.5707963267949;                                    241P    311
128,1,4,1,2,0,0,0,0,0,1.,1.,3.5,3.5,1.5707963267949,                 243P    312
1.5707963267949,1.5707963267949,3.14159265358979,                    243P    313
3.14159265358979,4.71238898038469,4.71238898038469,                  243P    314
4.71238898038469,1.,1.,0.707106781186548,0.707106781186548,1.,       243P    315
1.,0.707106781186548,0.707106781186548,1.,1.,-6.9,-2.0275,1.714,     243P    316
-6.9,0.472500000000002,1.714,-6.9,-2.0275,2.714,-6.9,                243P    317
0.472500000000002,2.714,-5.9,-2.0275,2.714,-5.9,                     243P    318
0.472500000000002,2.714,-4.9,-2.0275,2.714,-4.9,                     243P    319
0.472500000000002,2.714,-4.9,-2.0275,1.714,-4.9,                     243P    320
0.472500000000002,1.714,1.,3.5,1.5707963267949,4.71238898038469;     243P    321
128,1,4,1,2,0,0,0,0,0,1.63231000619305,1.63231000619305,             245P    322
3.53888348226135,3.53888348226135,-1.5707963267949,                  245P    323
-1.5707963267949,-1.5707963267949,0.,0.,1.5707963267949,             245P    324
1.5707963267949,1.5707963267949,1.,1.,0.707106781186548,             245P    325
0.707106781186548,1.,1.,0.707106781186548,0.707106781186548,1.,      245P    326
1.,3.6303,-1.9725,1.714,3.6303,-4.1275,1.714,3.6303,-1.9725,         245P    327
2.8443,3.6303,-4.1275,2.8443,2.5,-1.9725,2.8443,2.5,-4.1275,         245P    328
2.8443,1.3697,-1.9725,2.8443,1.3697,-4.1275,2.8443,1.3697,           245P    329
-1.9725,1.714,1.3697,-4.1275,1.714,1.63231000619305,                 245P    330
3.53888348226135,-1.5707963267949,1.5707963267949;                   245P    331
128,1,2,1,2,0,0,0,0,0,-4.,-4.,-1.714,-1.714,-3.14159265358979,       247P    332
-3.14159265358979,-3.14159265358979,-1.5707963267949,                247P    333
-1.5707963267949,-1.5707963267949,1.,1.,0.707106781186547,           247P    334
0.707106781186547,1.,1.,-1.5,-3.0275,1.714,-1.5,-3.0275,4.,-1.5,     247P    335
-2.0275,1.714,-1.5,-2.0275,4.,-2.5,-2.0275,1.714,-2.5,-2.0275,       247P    336
4.,-4.,-1.714,-3.14159265358979,-1.5707963267949;                    247P    337
128,1,1,1,1,0,0,1,0,0,-0.001,-0.001,0.2296,0.2296,0.099,0.099,       249P    338
0.551,0.551,1.,1.,1.,1.,0.239999999999998,-1.9725,1.704,             249P    339
0.239999999999998,-1.9725,4.01,4.76,-1.9725,1.704,4.76,-1.9725,      249P    340
4.01,-0.001,0.2296,0.099,0.551;                                      249P    341
128,1,1,1,1,0,0,1,0,0,-0.2296,-0.2296,0.001,0.001,-0.131,-0.131,     251P    342
-0.099,-0.099,1.,1.,1.,1.,-0.750000000000002,-0.982499999999999,     251P    343
4.01,-0.750000000000002,-0.982499999999999,1.704,                    251P    344
-0.750000000000002,-0.662499999999999,4.01,-0.750000000000002,       251P    345
-0.662499999999999,1.704,-0.2296,0.001,-0.131,-0.099;                251P    346
128,1,1,1,1,0,0,1,0,0,-0.001,-0.001,0.2296,0.2296,-0.131,-0.131,     253P    347
-0.0989999999999999,-0.0989999999999999,1.,1.,1.,1.,5.75,            253P    348
-0.982499999999999,1.704,5.75,-0.982499999999999,4.01,5.75,          253P    349
-0.662499999999999,1.704,5.75,-0.662499999999999,4.01,-0.001,        253P    350
0.2296,-0.131,-0.0989999999999999;                                   253P    351
128,1,1,1,1,0,0,1,0,0,-0.2296,-0.2296,0.001,0.001,0.099,0.099,       255P    352
0.551,0.551,1.,1.,1.,1.,0.239999999999998,0.327500000000001,         255P    353
4.01,0.239999999999998,0.327500000000001,1.704,4.76,0.3275,4.01,     255P    354
4.76,0.3275,1.704,-0.2296,0.001,0.099,0.551;                         255P    355
128,1,2,1,2,0,0,0,0,0,-2.286,-2.286,0.,0.,1.5707963267949,           257P    356
1.5707963267949,1.5707963267949,3.14159265358979,                    257P    357
3.14159265358979,3.14159265358979,1.,1.,0.707106781186548,           257P    358
0.707106781186548,1.,1.,0.249999999999998,0.327500000000001,         257P    359
1.714,0.249999999999998,0.327500000000001,4.,-0.750000000000002,     257P    360
0.327500000000001,1.714,-0.750000000000002,0.327500000000001,4.,     257P    361
-0.750000000000002,-0.672499999999999,1.714,-0.750000000000002,      257P    362
-0.672499999999999,4.,-2.286,0.,1.5707963267949,                     257P    363
3.14159265358979;                                                    257P    364
128,1,2,1,2,0,0,0,0,0,-2.286,-2.286,0.,0.,-3.14159265358979,         259P    365
-3.14159265358979,-3.14159265358979,-1.5707963267949,                259P    366
-1.5707963267949,-1.5707963267949,1.,1.,0.707106781186548,           259P    367
0.707106781186548,1.,1.,-0.750000000000002,-0.972499999999999,       259P    368
1.714,-0.750000000000002,-0.972499999999999,4.,                      259P    369
-0.750000000000002,-1.9725,1.714,-0.750000000000002,-1.9725,4.,      259P    370
0.249999999999998,-1.9725,1.714,0.249999999999998,-1.9725,4.,        259P    371
-2.286,0.,-3.14159265358979,-1.5707963267949;                        259P    372
128,1,2,1,2,0,0,0,0,0,-2.286,-2.286,0.,0.,-1.5707963267949,          261P    373
-1.5707963267949,-1.5707963267949,2.77555756156289D-16,              261P    374
2.77555756156289D-16,2.77555756156289D-16,1.,1.,                     261P    375
0.707106781186547,0.707106781186547,1.,1.,4.75,-1.9725,1.714,        261P    376
4.75,-1.9725,4.,5.75,-1.9725,1.714,5.75,-1.9725,4.,5.75,-0.9725,     261P    377
1.714,5.75,-0.9725,4.,-2.286,0.,-1.5707963267949,                    261P    378
2.77555756156289D-16;                                                261P    379
128,1,2,1,2,0,0,0,0,0,-2.286,-2.286,0.,0.,2.77555756156289D-16,      263P    380
2.77555756156289D-16,2.77555756156289D-16,1.5707963267949,           263P    381
1.5707963267949,1.5707963267949,1.,1.,0.707106781186547,             263P    382
0.707106781186547,1.,1.,5.75,-0.672499999999999,1.714,5.75,          263P    383
-0.672499999999999,4.,5.75,0.327500000000001,1.714,5.75,             263P    384
0.327500000000001,4.,4.75,0.327500000000001,1.714,4.75,              263P    385
0.327500000000001,4.,-2.286,0.,2.77555756156289D-16,                 263P    386
1.5707963267949;                                                     263P    387
502,42,-6.9,0.472500000000002,1.714,-6.9,-2.0275,1.714,-8.,          265P    388
-2.0275,1.714,-8.,4.1275,1.714,8.,4.1275,1.714,8.,3.1275,1.714,      265P    389
-4.245,3.1275,1.714,-0.750000000000002,-0.972499999999999,1.714,     265P    390
-0.750000000000002,-0.672499999999999,1.714,0.249999999999998,       265P    391
-1.9725,1.714,1.3697,-1.9725,1.714,1.3697,-4.1275,1.714,-1.5,        265P    392
-4.1275,1.714,-1.5,-3.0275,1.714,-2.5,-2.0275,1.714,-4.9,            265P    393
-2.0275,1.714,-4.9,0.472500000000002,1.714,-4.245,1.1275,1.714,      265P    394
8.,1.1275,1.714,8.,-4.1275,1.714,3.6303,-4.1275,1.714,3.6303,        265P    395
-1.9725,1.714,4.75,-1.9725,1.714,5.75,-0.972499999999999,1.714,      265P    396
5.75,-0.672499999999999,1.714,4.75,0.3275,1.714,                     265P    397
0.249999999999998,0.327500000000001,1.714,8.,4.1275,4.,8.,           265P    398
-4.1275,4.,-8.,4.1275,4.,-8.,-2.0275,4.,-1.5,-4.1275,4.,-2.5,        265P    399
-2.0275,4.,-1.5,-3.0275,4.,4.75,-1.9725,4.,0.249999999999998,        265P    400
-1.9725,4.,-0.750000000000002,-0.972499999999999,4.,                 265P    401
-0.750000000000002,-0.672499999999999,4.,0.249999999999998,          265P    402
0.327500000000001,4.,4.75,0.3275,4.,5.75,-0.672499999999999,4.,      265P    403
5.75,-0.972499999999999,4.;                                          265P    404
504,63,95,265,1,265,2,97,265,2,265,3,99,265,4,265,3,101,265,5,       267P    405
265,4,103,265,6,265,5,105,265,6,265,7,107,265,7,265,1,109,265,8,     267P    406
265,9,111,265,8,265,10,113,265,11,265,10,115,265,12,265,11,117,      267P    407
265,13,265,12,119,265,13,265,14,121,265,15,265,14,123,265,15,        267P    408
265,16,125,265,16,265,17,127,265,17,265,18,129,265,18,265,19,        267P    409
131,265,20,265,19,133,265,21,265,20,135,265,22,265,21,137,265,       267P    410
23,265,22,139,265,23,265,24,141,265,25,265,24,143,265,25,265,26,     267P    411
145,265,27,265,26,147,265,27,265,9,149,265,6,265,19,151,265,5,       267P    412
265,28,153,265,29,265,28,155,265,20,265,29,157,265,28,265,30,        267P    413
159,265,4,265,30,161,265,30,265,31,163,265,31,265,3,165,265,32,      267P    414
265,29,167,265,32,265,13,169,265,21,265,12,171,265,31,265,33,        267P    415
173,265,34,265,33,175,265,34,265,32,177,265,35,265,36,179,265,       267P    416
36,265,37,181,265,37,265,38,183,265,38,265,39,185,265,39,265,40,     267P    417
187,265,40,265,41,189,265,41,265,42,191,265,42,265,35,193,265,       267P    418
16,265,2,195,265,33,265,15,197,265,14,265,34,199,265,7,265,18,       267P    419
201,265,1,265,17,203,265,11,265,22,205,265,10,265,36,207,265,35,     267P    420
265,23,209,265,9,265,38,211,265,37,265,8,213,265,24,265,42,215,      267P    421
265,41,265,25,217,265,39,265,27,219,265,26,265,40;                   267P    422
406,1,5HBody1;                                                       269P    423
314,62.7450980392157,62.7450980392157,62.7450980392157,13HSteel      271P    424
- Satin;                                                             271P    425
S      1G      3D    272P    425                                        T      1
